<?xml version="1.0" encoding="UTF-8" standalone="no"?>
<!-- Created with Inkscape (http://www.inkscape.org/) -->

<svg
   width="150"
   height="150"
   viewBox="0 0 39.687501 39.687501"
   version="1.1"
   id="svg1"
   xmlns="http://www.w3.org/2000/svg"
   xmlns:svg="http://www.w3.org/2000/svg">
  <defs
     id="defs1" />
  <g
     id="layer1">
    <path
       style="fill:#f4d7d7;stroke-width:1.092"
       id="path1"
       d="m 9.2926375,104.04111 -7.9196056,-5.560228 -4.4964762,8.568428 -1.6683347,-9.53168 -9.238282,2.8793 5.5602243,-7.919602 -8.5684273,-4.496476 9.5316791,-1.668335 -2.8793041,-9.238281 7.9196055,5.560224 4.4964762,-8.568428 1.6683347,9.531679 9.2382816,-2.879304 -5.5602239,7.919606 8.5684269,4.496476 -9.5316787,1.668335 z" />
    <path
       style="fill:#f4d7d7;stroke-width:1.092"
       id="path2"
       d="m 30.611043,110.96503 -8.621714,-5.65586 -4.501097,9.277 -2.097177,-10.09576 -9.742589,3.37707 5.655859,-8.621712 -9.277005,-4.501097 10.095769,-2.097176 -3.3770768,-9.74259 8.6217148,5.655859 4.501097,-9.277005 2.097176,10.095769 9.74259,-3.377077 -5.655859,8.621715 9.277005,4.501097 -10.09577,2.097177 z"
       transform="matrix(0.35871911,0,0,0.35402644,-1.8187077,0.29245207)" />
    <path
       style="fill:#f4d7d7;stroke-width:1.092"
       id="path3"
       d="m 53.751533,108.77853 -9.391136,-0.70705 0.505555,9.40414 -6.140578,-7.1405 -6.292246,7.00721 0.707048,-9.39113 -9.404136,0.50555 7.140494,-6.14057 -7.00721,-6.292251 9.391137,0.707048 -0.505556,-9.404136 6.140578,7.140495 6.292246,-7.00721 -0.707048,9.391136 9.404136,-0.505556 -7.140494,6.140574 z"
       transform="matrix(0.35871911,0,0,0.35402644,-1.8187077,0.29245207)" />
    <path
       style="fill:#f4d7d7;stroke-width:1.092"
       id="path4"
       d="m 72.701227,93.655212 -7.679618,5.628552 6.568705,6.892696 -9.410298,-1.45032 -0.229096,9.51864 -5.628551,-7.67961 -6.892696,6.5687 1.450323,-9.4103 -9.518647,-0.22909 7.679618,-5.628555 -6.568704,-6.892696 9.410297,1.450324 0.229096,-9.518648 5.628552,7.679619 6.892695,-6.568705 -1.450323,9.410297 z"
       transform="matrix(0.35871911,0,0,0.35402644,-1.8187077,0.29245207)" />
    <path
       style="fill:#f4d7d7;stroke-width:1.092"
       id="path5"
       d="m 91.468711,106.2276 -11.348962,-3.83425 -2.344151,11.74757 -5.3137,-10.73616 -9.964352,6.64923 3.834256,-11.348967 -11.747571,-2.344151 10.736156,-5.3137 -6.649221,-9.964352 11.348962,3.834255 2.344151,-11.74757 5.3137,10.736156 9.964352,-6.649221 -3.834255,11.348962 11.74757,2.344151 -10.736156,5.3137 z"
       transform="matrix(0.35871911,0,0,0.35402644,-1.8187077,0.29245207)" />
    <path
       style="fill:#f4d7d7;stroke-width:1.092"
       id="path6"
       d="m 110.60061,116.6135 -7.22185,-6.13264 -5.153812,7.95002 -0.770189,-9.44306 -9.265803,1.97722 6.132642,-7.22186 -7.950014,-5.153806 9.443055,-0.77019 -1.977216,-9.265802 7.221857,6.132642 5.15381,-7.950014 0.77019,9.443055 9.2658,-1.977216 -6.13264,7.221851 7.95001,5.15381 -9.44305,0.77019 z"
       transform="matrix(0.35871911,0,0,0.35402644,-1.8187077,0.29245207)" />
    <path
       style="fill:#f4d7d7;stroke-width:1.092"
       id="path7"
       d="m 121.71534,89.46442 -9.3658,-1.943161 -0.72356,9.537841 -5.2486,-7.996638 -7.255908,6.232632 1.943158,-9.365792 -9.537838,-0.723568 7.996638,-5.248593 -6.232633,-7.255911 9.365793,1.94316 0.72357,-9.53784 5.24859,7.996637 7.25591,-6.232632 -1.94316,9.365793 9.53784,0.723567 -7.99664,5.248594 z"
       transform="matrix(0.35871911,0,0,0.35402644,-1.8187077,0.29245207)" />
    <text
       xml:space="preserve"
       style="font-style:normal;font-variant:normal;font-weight:normal;font-stretch:normal;font-size:7.04021px;line-height:1.25;font-family:'Freestyle Script';-inkscape-font-specification:'Freestyle Script';stroke-width:0.0942881"
       x="23.636345"
       y="26.313284"
       id="text68-1"
       transform="scale(1.0066057,0.99343762)"><tspan
         id="tspan68-6"
         style="font-style:normal;font-variant:normal;font-weight:normal;font-stretch:normal;font-size:7.04021px;font-family:'Freestyle Script';-inkscape-font-specification:'Freestyle Script';stroke-width:0.0942881"
         x="23.636345"
         y="26.313284">Guten Tag</tspan></text>
    <path
       style="fill:#f4d7d7;stroke-width:1.092"
       id="path8"
       d="m 43.001226,87.277911 -6.427673,-2.162746 -1.318874,6.652294 -3.015759,-6.074343 -5.636467,3.771298 2.162745,-6.427673 -6.652294,-1.318874 6.074343,-3.015759 -3.771297,-5.636467 6.427672,2.162746 1.318874,-6.652295 3.015759,6.074343 5.636468,-3.771297 -2.162746,6.427673 6.652294,1.318874 -6.074343,3.015759 z"
       transform="matrix(0.35871911,0,0,0.35402644,-1.8187077,0.29245207)" />
    <path
       style="fill:#f4d7d7;stroke-width:1.092"
       id="path9"
       d="m 59.21779,88.735586 -7.42975,-2.156211 -1.183629,7.645225 -3.728955,-6.778298 -6.242943,4.569039 2.156211,-7.429751 -7.645225,-1.183628 6.778298,-3.728956 -4.569038,-6.242942 7.42975,2.156211 1.183629,-7.645226 3.728955,6.778299 6.242943,-4.569039 -2.156211,7.42975 7.645225,1.183629 -6.778298,3.728955 z"
       transform="matrix(0.35871911,0,0,0.35402644,-1.8187077,0.29245207)" />
    <path
       style="fill:#f4d7d7;stroke-width:1.092"
       id="path10"
       d="m 22.958283,81.993867 -9.231748,-1.877228 -0.675404,9.396435 -5.2004318,-7.855232 -7.12186562,6.1667 1.87722722,-9.231748 -9.3964347,-0.675405 7.8552318,-5.200431 -6.1666997,-7.121866 9.2317481,1.877227 0.6754044,-9.396434 5.2004313,7.855231 7.121866,-6.166699 -1.877227,9.231748 9.396434,0.675404 -7.855231,5.200432 z"
       transform="matrix(0.35871911,0,0,0.35402644,-1.8187077,0.29245207)" />
    <path
       style="fill:#f4d7d7;stroke-width:1.092"
       id="path11"
       d="m 72.701226,79.078525 -4.946632,-0.435396 0.203845,4.96157 -3.189925,-3.805668 -3.36422,3.6525 0.435396,-4.946632 -4.961571,0.203845 3.805669,-3.189925 -3.6525,-3.36422 4.946631,0.435396 -0.203844,-4.96157 3.189925,3.805668 3.36422,-3.6525 -0.435396,4.946631 4.96157,-0.203844 -3.805668,3.189925 z"
       transform="matrix(0.35871911,0,0,0.35402644,-1.8187077,0.29245207)" />
    <path
       style="fill:#f4d7d7;stroke-width:1.092"
       id="path12"
       d="m 92.01534,78.167481 -7.85723,-1.117899 -0.09899,7.935741 -4.765427,-6.346375 -5.681415,5.541416 1.117898,-7.85723 -7.93574,-0.09899 6.346375,-4.765428 -5.541417,-5.681415 7.857231,1.117899 0.09899,-7.93574 4.765427,6.346375 5.681415,-5.541417 -1.117898,7.857231 7.93574,0.09899 -6.346375,4.765427 z"
       transform="matrix(0.35871911,0,0,0.35402644,-1.8187077,0.29245207)" />
    <path
       style="fill:#f4d7d7;stroke-width:1.092"
       id="path13"
       d="M 34.073008,58.671168 24.05797,54.494172 21.202514,64.962919 17.074395,54.927636 7.6527611,60.311045 11.829756,50.296007 1.36101,47.440551 11.396293,43.312432 6.0128836,33.890798 l 10.0150384,4.176996 2.855455,-10.468747 4.12812,10.035283 9.421634,-5.383409 -4.176996,10.015038 10.468747,2.855455 -10.035283,4.12812 z"
       transform="matrix(0.35871911,0,0,0.35402644,-1.8187077,0.29245207)" />
    <path
       style="fill:#f4d7d7;stroke-width:1.092"
       id="path14"
       d="m 59.035582,65.777301 -7.117508,-5.498647 -4.538477,7.765067 -1.144708,-8.920968 -8.699919,2.281543 5.498647,-7.117508 -7.765067,-4.538478 8.920969,-1.144707 -2.281543,-8.69992 7.117507,5.498647 4.538478,-7.765067 1.144707,8.920969 8.69992,-2.281543 -5.498647,7.117508 7.765067,4.538477 -8.920969,1.144708 z"
       transform="matrix(0.35871911,0,0,0.35402644,-1.8187077,0.29245207)" />
    <text
       xml:space="preserve"
       style="font-style:normal;font-variant:normal;font-weight:normal;font-stretch:normal;font-size:7.04021px;line-height:1.25;font-family:'Freestyle Script';-inkscape-font-specification:'Freestyle Script';stroke-width:0.0942881"
       x="4.4811764"
       y="20.923864"
       id="text68-8"
       transform="scale(1.0066057,0.99343762)"><tspan
         id="tspan68-2"
         style="font-style:normal;font-variant:normal;font-weight:normal;font-stretch:normal;font-size:7.04021px;font-family:'Freestyle Script';-inkscape-font-specification:'Freestyle Script';stroke-width:0.0942881"
         x="4.4811764"
         y="20.923864">Guten Tag</tspan></text>
    <path
       style="fill:#f4d7d7;stroke-width:1.092"
       id="path15"
       d="m 39.174847,69.239265 -4.519152,-1.473708 -0.880789,4.671055 -2.153454,-4.237591 -3.925747,2.680122 1.473709,-4.519152 -4.671055,-0.880789 4.237591,-2.153454 -2.680122,-3.925746 4.519151,1.473708 0.88079,-4.671055 2.153453,4.237591 3.925747,-2.680122 -1.473708,4.519151 4.671055,0.88079 -4.237592,2.153454 z"
       transform="matrix(0.35871911,0,0,0.35402644,-1.8187077,0.29245207)" />
    <text
       xml:space="preserve"
       style="font-style:normal;font-variant:normal;font-weight:normal;font-stretch:normal;font-size:7.04021px;line-height:1.25;font-family:'Freestyle Script';-inkscape-font-specification:'Freestyle Script';stroke-width:0.0942881"
       x="22.207823"
       y="12.742335"
       id="text68-7"
       transform="scale(1.0066057,0.99343762)"><tspan
         id="tspan68-1"
         style="font-style:normal;font-variant:normal;font-weight:normal;font-stretch:normal;font-size:7.04021px;font-family:'Freestyle Script';-inkscape-font-specification:'Freestyle Script';stroke-width:0.0942881"
         x="22.207823"
         y="12.742335">Guten Tag</tspan></text>
    <path
       style="fill:#f4d7d7;stroke-width:1.092"
       id="path16"
       d="m 86.913493,58.124538 -4.619141,-1.439652 -0.834167,4.76584 -2.248238,-4.284214 -3.959803,2.780112 1.439652,-4.619141 -4.765839,-0.834167 4.284213,-2.248238 -2.780112,-3.959803 4.619141,1.439652 0.834168,-4.76584 2.248238,4.284214 3.959802,-2.780112 -1.439652,4.619141 4.76584,0.834167 -4.284214,2.248238 z"
       transform="matrix(0.35871911,0,0,0.35402644,-1.8187077,0.29245207)" />
    <path
       style="fill:#f4d7d7;stroke-width:1.092"
       id="path17"
       d="m 105.31656,73.430062 -6.262543,-7.575271 -6.707747,7.184035 0.928236,-9.784815 -9.822972,0.336787 7.57527,-6.262547 -7.184034,-6.707746 9.784814,0.928236 -0.336787,-9.822972 6.262547,7.57527 6.707746,-7.184034 -0.92824,9.784814 9.82298,-0.336787 -7.57527,6.262547 7.18403,6.707746 -9.78481,-0.928236 z"
       transform="matrix(0.35871911,0,0,0.35402644,-1.8187077,0.29245207)" />
    <path
       style="fill:#f4d7d7;stroke-width:1.092"
       id="path18"
       d="M 15.852147,17.492025 7.1544056,15.544507 6.3406749,24.420395 1.5675456,16.89306 -5.2840492,22.593865 -3.3365316,13.896124 -12.212419,13.082393 -4.685084,8.3092636 -10.38589,1.4576688 -1.688148,3.4051865 -0.87441731,-5.4707011 3.898712,2.056634 10.750307,-3.6441718 8.8027892,5.05357 17.678677,5.8673007 10.151342,10.64043 Z"
       transform="matrix(0.35871911,0,0,0.35402644,-1.8187077,0.29245207)" />
    <path
       style="fill:#f4d7d7;stroke-width:1.092"
       id="path19"
       d="m 34.073007,18.038651 -5.170574,-4.041569 -3.343655,5.647042 -0.798327,-6.513969 -6.357384,1.628741 4.041569,-5.1705738 -5.647042,-3.3436554 6.513969,-0.798327 -1.628741,-6.35738312 5.170574,4.04156882 3.343655,-5.6470421 0.798327,6.5139685 6.357383,-1.6287405 -4.041568,5.1705738 5.647042,3.3436558 -6.513969,0.798327 z"
       transform="matrix(0.35871911,0,0,0.35402644,-1.8187077,0.29245207)" />
    <path
       style="fill:#f4d7d7;stroke-width:1.092"
       id="path20"
       d="m 41.17914,36.441717 -6.108896,-4.503105 -3.680793,6.636891 -1.135466,-7.503818 -7.295704,2.090277 4.503105,-6.108896 -6.636891,-3.680793 7.503817,-1.135465 -2.090276,-7.295705 6.108895,4.503105 3.680793,-6.636891 1.135466,7.503818 7.295704,-2.090277 -4.503104,6.108896 6.63689,3.680793 -7.503817,1.135465 z"
       transform="matrix(0.35871911,0,0,0.35402644,-1.8187077,0.29245207)" />
    <path
       style="fill:#f4d7d7;stroke-width:1.092"
       id="path21"
       d="M 61.404293,19.496319 56.096994,15.615695 53.556375,21.67968 52.547563,15.182838 46.463189,17.674233 50.343813,12.366935 44.279828,9.8263149 50.77667,8.8175036 48.285275,2.7331292 53.592573,6.613753 56.133193,0.54976818 57.142004,7.0466103 63.226379,4.555215 59.345755,9.8625135 65.40974,12.403133 58.912898,13.411945 Z"
       transform="matrix(0.35871911,0,0,0.35402644,-1.8187077,0.29245207)" />
    <path
       style="fill:#f4d7d7;stroke-width:1.092"
       id="path22"
       d="m 66.870553,41.907976 -5.994783,-6.727427 -5.149632,7.394389 0.518057,-8.995961 -8.869962,1.587282 6.727427,-5.994783 -7.394388,-5.149632 8.995961,0.518057 -1.587282,-8.869962 5.994782,6.727427 5.149633,-7.394388 -0.518058,8.995961 8.869962,-1.587283 -6.727427,5.994783 7.394389,5.149633 -8.995961,-0.518058 z"
       transform="matrix(0.35871911,0,0,0.35402644,-1.8187077,0.29245207)" />
    <path
       style="fill:#f4d7d7;stroke-width:1.092"
       id="path23"
       d="m 88.917793,17.127608 -8.085756,-5.434776 -3.406335,9.127602 -1.874526,-9.560459 -8.862832,4.045547 5.434776,-8.0857561 -9.127602,-3.4063347 9.560459,-1.8745261 -4.045547,-8.8628317 8.085756,5.4347755 3.406335,-9.1276019 1.874526,9.5604592 8.862831,-4.0455469 -5.434775,8.0857558 9.127602,3.4063346 -9.560459,1.8745262 z" />
    <path
       style="fill:#f4d7d7;stroke-width:1.092"
       id="path24"
       d="m 83.087114,36.806136 4.749522,-6.371582 -7.301093,-3.13832 7.863808,-1.146969 -2.943526,-7.381779 6.371582,4.749522 3.13832,-7.301093 1.146968,7.863808 7.381785,-2.943525 -4.749527,6.371581 7.301097,3.13832 -7.863812,1.146969 2.943522,7.381779 -6.371578,-4.749522 -3.13832,7.301093 -1.146969,-7.863808 z"
       transform="matrix(0.35871911,0,0,0.35402644,-1.8187077,0.29245207)" />
    <path
       style="fill:#f4d7d7;stroke-width:1.092"
       id="path25"
       d="m 80.718405,43.183437 -5.74056,-3.758194 -2.320829,6.456919 -1.401745,-6.716633 -6.206805,2.924656 3.758194,-5.740559 -6.456919,-2.32083 6.716633,-1.401744 -2.924656,-6.206806 5.740559,3.758194 2.32083,-6.456918 1.401744,6.716632 6.206806,-2.924656 -3.758194,5.74056 6.456918,2.320829 -6.716632,1.401745 z"
       transform="matrix(0.35871911,0,0,0.35402644,-1.8187077,0.29245207)" />
    <path
       style="fill:#f4d7d7;stroke-width:1.092"
       id="path26"
       d="m 115.70245,19.314111 -6.93426,-7.982487 -6.15192,8.599873 0.74121,-10.5477315 -10.431102,1.7309595 7.982482,-6.9342585 -8.599869,-6.1519273 10.547729,0.7412095 -1.73096,-10.4310987 6.93426,7.9824872 6.15193,-8.5998732 -0.74121,10.5477314 10.4311,-1.7309593 -7.98249,6.9342584 8.59988,6.1519272 -10.54774,-0.7412094 z" />
    <path
       style="fill:#ffaaaa;stroke-width:1.092"
       id="path27"
       d="m 111.87607,43.183435 -3.61423,-6.581374 -5.56095,5.045089 2.09809,-7.209377 -7.499602,-0.364768 6.581372,-3.614225 -5.045088,-5.560951 7.209378,2.098092 0.36477,-7.499603 3.61422,6.581374 5.56095,-5.04509 -2.09809,7.209377 7.49961,0.364769 -6.58138,3.614224 5.04509,5.560951 -7.20938,-2.098091 z"
       transform="matrix(0.35871911,0,0,0.35402644,-1.8187077,0.29245207)" />
    <path
       style="fill:#ffaaaa;stroke-width:1.092"
       id="path28"
       d="m 21.318404,29.7 -4.810445,-4.605846 -3.361472,5.749323 -0.144673,-6.658324 -6.442305,1.688466 4.605846,-4.810445 -5.7493228,-3.361472 6.6583238,-0.144673 -1.688466,-6.442305 4.810445,4.605846 3.361472,-5.7493229 0.144673,6.6583239 6.442305,-1.688466 -4.605846,4.810445 5.749323,3.361472 -6.658324,0.144673 z"
       transform="matrix(0.35871911,0,0,0.35402644,-1.8187077,0.29245207)" />
    <path
       style="fill:#ffaaaa;stroke-width:1.092"
       id="path29"
       d="m 27.695705,48.467484 -4.45727,-3.769932 -2.630553,5.21151 -0.486021,-5.81751 -5.545175,1.825012 3.769932,-4.45727 -5.21151,-2.630552 5.817511,-0.486021 -1.825013,-5.545175 4.45727,3.769932 2.630552,-5.21151 0.486022,5.81751 5.545175,-1.825012 -3.769932,4.45727 5.211509,2.630552 -5.81751,0.486021 z"
       transform="matrix(0.35871911,0,0,0.35402644,-1.8187077,0.29245207)" />
    <path
       style="fill:#ffaaaa;stroke-width:1.092"
       id="path30"
       d="m 44.094477,58.306749 -4.061747,-1.542413 -0.555992,4.309025 -1.781438,-3.962739 -3.440087,2.653796 1.542413,-4.061747 -4.309025,-0.555992 3.962739,-1.781438 -2.653795,-3.440087 4.061746,1.542413 0.555992,-4.309025 1.781439,3.962739 3.440086,-2.653796 -1.542413,4.061747 4.309026,0.555992 -3.96274,1.781439 z"
       transform="matrix(0.35871911,0,0,0.35402644,-1.8187077,0.29245207)" />
    <path
       style="fill:#ffaaaa;stroke-width:1.092"
       id="path31"
       d="m 49.378526,26.784663 -4.615061,-2.672665 -1.526663,5.109915 -1.373482,-5.1532 -4.692769,2.533741 2.672664,-4.615061 -5.109915,-1.526663 5.153201,-1.373482 -2.533742,-4.692769 4.615062,2.672665 1.526662,-5.109915 1.373482,5.1532 4.69277,-2.533741 -2.672665,4.615061 5.109915,1.526663 -5.153201,1.373482 z"
       transform="matrix(0.35871911,0,0,0.35402644,-1.8187077,0.29245207)" />
    <path
       style="fill:#ffaaaa;stroke-width:1.092"
       id="path32"
       d="m 72.336808,60.857667 -4.24064,-3.831147 -2.740447,5.015043 -0.289555,-5.707615 -5.48396,1.608382 3.831147,-4.24064 -5.015043,-2.740447 5.707615,-0.289555 -1.608382,-5.48396 4.240639,3.831147 2.740448,-5.015043 0.289555,5.707615 5.48396,-1.608382 -3.831148,4.24064 5.015044,2.740447 -5.707615,0.289555 z"
       transform="matrix(0.35871911,0,0,0.35402644,-1.8187077,0.29245207)" />
    <path
       style="fill:#ffaaaa;stroke-width:1.092"
       id="path33"
       d="m 28.242333,88.735584 -3.837987,-4.061893 -3.05847,4.677058 0.158326,-5.586058 -5.469845,1.144514 4.061893,-3.837987 -4.677058,-3.05847 5.586058,0.158326 -1.144513,-5.469845 3.837986,4.061893 3.058471,-4.677058 -0.158326,5.586058 5.469844,-1.144513 -4.061893,3.837986 4.677058,3.058471 -5.586058,-0.158326 z"
       transform="matrix(0.35871911,0,0,0.35402644,-1.8187077,0.29245207)" />
    <path
       style="fill:#ffaaaa;stroke-width:1.092"
       id="path34"
       d="m 51.200615,96.752759 -5.460337,-4.4222 -3.031786,6.338723 -0.734074,-6.988009 -6.62595,2.338357 4.4222,-5.460337 -6.338723,-3.031786 6.988009,-0.734074 -2.338357,-6.62595 5.460337,4.4222 3.031785,-6.338722 0.734074,6.988009 6.62595,-2.338358 -4.422199,5.460337 6.338722,3.031786 -6.988009,0.734074 z"
       transform="matrix(0.35871911,0,0,0.35402644,-1.8187077,0.29245207)" />
    <path
       style="fill:#ffaaaa;stroke-width:1.092"
       id="path35"
       d="m 80.718404,95.295094 -9.185547,0.607253 2.725838,8.792773 -6.924555,-6.065771 -4.28997,8.144891 -0.607253,-9.185551 -8.792772,2.725841 6.06577,-6.924558 -8.144887,-4.28997 9.185547,-0.607253 -2.725838,-8.792772 6.924555,6.06577 4.28997,-8.144887 0.607253,9.185547 8.792772,-2.725838 -6.06577,6.924555 z"
       transform="matrix(0.35871911,0,0,0.35402644,-1.8187077,0.29245207)" />
    <path
       style="fill:#ffaaaa;stroke-width:1.092"
       id="path36"
       d="m 65.230675,32.615336 -4.638539,-5.239244 -4.01748,5.72936 0.424763,-6.984647 -6.892057,1.210482 5.239245,-4.638538 -5.729361,-4.01748 6.984647,0.424763 -1.210482,-6.892057 4.638538,5.239244 4.017481,-5.729361 -0.424764,6.984648 6.892058,-1.210483 -5.239245,4.638539 5.729361,4.01748 -6.984648,-0.424763 z"
       transform="matrix(0.35871911,0,0,0.35402644,-1.8187077,0.29245207)" />
    <path
       style="fill:#ffaaaa;stroke-width:1.092"
       id="path37"
       d="m 93.837426,89.100003 -5.580391,-5.674883 -4.222247,6.74668 0.06681,-7.958681 -7.756202,1.785043 5.674883,-5.580391 -6.746679,-4.222247 7.95868,0.06682 -1.785043,-7.756203 5.580391,5.674883 4.222247,-6.746679 -0.06682,7.95868 7.756203,-1.785043 -5.674883,5.580391 6.746676,4.222248 -7.958677,-0.06682 z"
       transform="matrix(0.35871911,0,0,0.35402644,-1.8187077,0.29245207)" />
    <path
       style="fill:#ffaaaa;stroke-width:1.092"
       id="path38"
       d="m 98.574844,52.293863 -3.873347,-2.531364 -1.561648,4.355672 -0.948925,-4.528815 -4.184178,1.975673 2.531365,-3.873347 -4.355672,-1.561648 4.528815,-0.948925 -1.975673,-4.184178 3.873347,2.531365 1.561648,-4.355673 0.948925,4.528816 4.184178,-1.975674 -2.531365,3.873348 4.355676,1.561648 -4.528819,0.948925 z"
       transform="matrix(0.35871911,0,0,0.35402644,-1.8187077,0.29245207)" />
    <path
       style="fill:#ffaaaa;stroke-width:1.092"
       id="path39"
       d="m 87.095706,28.971166 -2.792572,-2.01802 -1.313595,3.185174 -0.547692,-3.401602 -3.18111,1.323405 2.01802,-2.792572 -3.185174,-1.313596 3.401602,-0.547691 -1.323405,-3.18111 2.792572,2.018019 1.313596,-3.185173 0.547691,3.401602 3.18111,-1.323405 -2.018019,2.792572 3.185173,1.313595 -3.401602,0.547692 z"
       transform="matrix(0.35871911,0,0,0.35402644,-1.8187077,0.29245207)" />
    <path
       style="fill:#ffaaaa;stroke-width:1.092"
       id="path40"
       d="M 98.392635,7.1061347 93.195882,7.7558801 95.035836,12.659244 90.901738,9.4440242 88.73558,14.21227 88.085834,9.0155172 83.182471,10.855471 86.39769,6.7213726 81.629445,4.5552146 86.826197,3.9054692 84.986244,-0.99789453 89.120342,2.2173251 91.2865,-2.5509204 91.936245,2.6458321 96.839609,0.80587843 93.624389,4.9399767 Z"
       transform="matrix(0.35871911,0,0,0.35402644,-1.8187077,0.29245207)" />
    <path
       style="fill:#e9afaf;stroke-width:1.092"
       id="path41"
       d="m 12.207975,109.87178 -4.8527915,-5.99745 -4.7051127,6.11399 0.8093954,-7.67228 -7.6502629,0.99623 5.99745,-4.852791 -6.1139929,-4.705112 7.6722797,0.809395 -0.9962287,-7.650263 4.852792,5.99745 4.7051126,-6.113993 -0.809395,7.67228 7.650263,-0.996229 -5.99745,4.852792 6.113992,4.705111 -7.672279,-0.80939 z"
       transform="matrix(0.35871911,0,0,0.35402644,-1.8187077,0.29245207)" />
    <path
       style="fill:#e9afaf;stroke-width:1.092"
       id="path42"
       d="m 14.030061,38.081595 -7.6854791,-4.846098 -2.9268302,8.601449 -2.0077451,-8.861164 -8.1517244,4.012562 4.8460987,-7.685479 -8.6014489,-2.92683 8.8611634,-2.007745 -4.0125616,-8.151725 7.685479,4.846099 2.9268302,-8.601449 2.007745,8.861163 8.151724,-4.012561 -4.846098,7.685479 8.601449,2.92683 -8.861164,2.007745 z"
       transform="matrix(0.35871911,0,0,0.35402644,-1.8187077,0.29245207)" />
    <path
       style="fill:#e9afaf;stroke-width:1.092"
       id="path43"
       d="m 26.784664,69.239264 -6.50352,-1.905097 -0.341141,6.768219 -3.251576,-5.94579 -5.027077,4.544631 1.905097,-6.50352 -6.7682193,-0.341141 5.9457893,-3.251576 -4.5446301,-5.027077 6.5035201,1.905097 0.341141,-6.768219 3.251576,5.945789 5.027077,-4.54463 -1.905097,6.50352 6.768219,0.341141 -5.94579,3.251576 z"
       transform="matrix(0.35871911,0,0,0.35402644,-1.8187077,0.29245207)" />
    <path
       style="fill:#e9afaf;stroke-width:1.092"
       id="path44"
       d="m 61.95092,71.061351 -9.267861,-2.995379 -0.758975,9.710278 -4.435315,-8.67142 -7.40288,6.329527 2.995379,-9.267862 -9.710278,-0.758974 8.67142,-4.435315 -6.329527,-7.40288 9.267861,2.995379 0.758975,-9.710279 4.435315,8.671421 7.40288,-6.329528 -2.995379,9.267862 9.710279,0.758975 -8.671421,4.435315 z"
       transform="matrix(0.35871911,0,0,0.35402644,-1.8187077,0.29245207)" />
    <text
       xml:space="preserve"
       style="font-style:normal;font-variant:normal;font-weight:normal;font-stretch:normal;font-size:7.04021px;line-height:1.25;font-family:'Freestyle Script';-inkscape-font-specification:'Freestyle Script';stroke-width:0.0942881"
       x="11.169252"
       y="27.547009"
       id="text68-6-1"
       transform="scale(1.0066057,0.99343762)"><tspan
         id="tspan68-14-8"
         style="font-style:normal;font-variant:normal;font-weight:normal;font-stretch:normal;font-size:7.04021px;font-family:'Freestyle Script';-inkscape-font-specification:'Freestyle Script';stroke-width:0.0942881"
         x="11.169252"
         y="27.547009">Guten Tag</tspan></text>
    <path
       style="fill:#e9afaf;stroke-width:1.092"
       id="path45"
       d="m 106.77424,69.057056 -8.114135,-0.982113 0.930953,8.120161 -5.043099,-6.432017 -5.083538,6.400104 0.982113,-8.114132 -8.120161,0.930953 6.432017,-5.043099 -6.400104,-5.083538 8.114132,0.982113 -0.930953,-8.120161 5.043099,6.432017 5.083538,-6.400104 -0.982113,8.114132 8.120161,-0.930953 -6.43202,5.043099 z"
       transform="matrix(0.35871911,0,0,0.35402644,-1.2304524,3.5822916)" />
    <path
       style="fill:#e9afaf;stroke-width:1.092"
       id="path46"
       d="m 53.933741,40.450307 -8.709793,-3.50397 -1.38336,9.285721 -3.681072,-8.636435 -7.54418,5.587813 3.50397,-8.709793 -9.28572,-1.38336 8.636434,-3.681073 -5.587813,-7.544179 8.709793,3.50397 1.38336,-9.285721 3.681073,8.636435 7.544179,-5.587813 -3.50397,8.709793 9.285721,1.38336 -8.636435,3.681073 z"
       transform="matrix(0.35871911,0,0,0.35402644,-1.8187077,0.29245207)" />
    <path
       style="fill:#e9afaf;stroke-width:1.092"
       id="path47"
       d="m 89.646628,43.365642 -6.223297,-2.569103 -1.052097,6.650023 -2.583906,-6.217165 -5.446221,3.958331 2.569103,-6.223297 -6.650023,-1.052097 6.217165,-2.583906 -3.958331,-5.446222 6.223297,2.569103 1.052097,-6.650023 2.583906,6.217166 5.446221,-3.958331 -2.569102,6.223297 6.650023,1.052097 -6.217166,2.583906 z"
       transform="matrix(0.35871911,0,0,0.35402644,-1.8187077,0.29245207)" />
    <path
       style="fill:#e9afaf;stroke-width:1.092"
       id="path48"
       d="m 109.32515,60.311041 -4.11821,-3.397886 -2.34751,4.795252 -0.50935,-5.314681 -5.050697,1.730812 3.397887,-4.118208 -4.795253,-2.347515 5.314683,-0.509344 -1.730814,-5.050699 4.118204,3.397886 2.34752,-4.795253 0.50934,5.314681 5.0507,-1.730811 -3.39788,4.118208 4.79525,2.347515 -5.31468,0.509344 z"
       transform="matrix(0.35871911,0,0,0.35402644,-1.8187077,0.29245207)" />
    <path
       style="fill:#e9afaf;stroke-width:1.092"
       id="path49"
       d="m 96.023931,110.4184 -4.805693,-6.24469 -4.956527,6.12566 1.017524,-7.8138 -7.836287,0.8267 6.244689,-4.805694 -6.125656,-4.956528 7.8138,1.017525 -0.826698,-7.836287 4.805692,6.244689 4.956528,-6.125656 -1.017525,7.8138 7.836292,-0.826699 -6.244694,4.805693 6.125654,4.956527 -7.813798,-1.01752 z"
       transform="matrix(0.35871911,0,0,0.35402644,-1.8187077,0.29245207)" />
    <path
       style="fill:#e9afaf;stroke-width:1.092"
       id="path50"
       d="m 79.989571,73.24785 -4.940008,-2.580842 -1.36182,5.404615 -1.668182,-5.318044 -4.784592,2.858688 2.580842,-4.940008 -5.404615,-1.36182 5.318043,-1.668182 -2.858687,-4.784592 4.940007,2.580842 1.361821,-5.404615 1.668181,5.318043 4.784593,-2.858687 -2.580842,4.940007 5.404615,1.36182 -5.318044,1.668182 z"
       transform="matrix(0.35871911,0,0,0.35402644,-6.8515586,-0.61064113)" />
    <path
       style="fill:#e9afaf;stroke-width:1.092"
       id="path51"
       d="M 54.844783,11.843558 45.499215,8.9871024 44.89342,18.740665 40.304925,10.112532 32.979753,16.580981 35.836208,7.2354132 26.082646,6.6296186 34.710779,2.0411233 28.24233,-5.2840486 l 9.345568,2.8564554 0.605794,-9.7535628 4.588496,8.6281333 7.325171,-6.4684493 -2.856455,9.34556812 9.753563,0.60579453 -8.628133,4.58849535 z" />
    <path
       style="fill:#e9afaf;stroke-width:1.092"
       id="path52"
       d="m 37.35276,112.78712 -6.378712,-2.29126 -0.745735,6.7366 -2.890268,-6.1306 -5.290806,4.23618 2.291257,-6.37871 -6.736594,-0.74574 6.130593,-2.89026 -4.236176,-5.29081 6.378712,2.29126 0.745736,-6.736598 2.890267,6.130598 5.290806,-4.23618 -2.291257,6.37871 6.736595,0.74574 -6.130594,2.89026 z"
       transform="matrix(0.35871911,0,0,0.35402644,-1.8187077,0.29245207)" />
    <path
       style="fill:#e9afaf;stroke-width:1.092"
       id="path53"
       d="m 66.506135,116.06687 -7.264103,-0.87142 0.84102,7.26769 -4.520308,-5.75269 -4.544339,5.73372 0.871421,-7.2641 -7.267685,0.84102 5.752684,-4.52031 -5.733721,-4.54434 7.264103,0.87142 -0.84102,-7.26768 4.520309,5.75268 4.544339,-5.73372 -0.871421,7.26411 7.267685,-0.84102 -5.752684,4.5203 z"
       transform="matrix(0.35871911,0,0,0.35402644,-1.8187077,0.29245207)" />
    <path
       style="fill:#e9afaf;stroke-width:1.092"
       id="path54"
       d="m 55.57362,88.553376 -1.848344,-2.401803 -1.906356,2.356021 0.391355,-3.005307 -3.013956,0.31796 2.401803,-1.848343 -2.356021,-1.906356 3.005307,0.391355 -0.317961,-3.013956 1.848344,2.401803 1.906356,-2.356021 -0.391355,3.005307 3.013956,-0.317961 -2.401803,1.848343 2.356021,1.906357 -3.005307,-0.391355 z"
       transform="matrix(0.35871911,0,0,0.35402644,-1.8187077,0.29245207)" />
    <path
       style="fill:#e9afaf;stroke-width:1.092"
       id="path55"
       d="m 116.7957,58.488955 -4.11821,-3.397886 -2.34751,4.795252 -0.50935,-5.314681 -5.0507,1.730812 3.39789,-4.118208 -4.79525,-2.347515 5.31468,-0.509345 -1.73081,-5.050699 4.1182,3.397886 2.34752,-4.795252 0.50934,5.314681 5.0507,-1.730812 -3.39788,4.118208 4.79525,2.347515 -5.31468,0.509345 z"
       transform="matrix(0.35871911,0,0,0.35402644,-1.8187077,0.29245207)" />
    <path
       style="fill:#e9afaf;stroke-width:1.092"
       id="path56"
       d="m 14.394478,55.938036 -6.3151194,-2.894048 -1.3467975,6.814865 -2.4190628,-6.511865 -5.7711673,3.866508 2.8940483,-6.31512 -6.8148656,-1.346797 6.5118653,-2.419063 -3.8665081,-5.771167 6.3151198,2.894048 1.3467975,-6.814865 2.4190628,6.511865 5.771167,-3.866508 -2.894048,6.31512 6.814866,1.346797 -6.511866,2.419063 z"
       transform="matrix(0.35871911,0,0,0.35402644,-1.8187077,0.29245207)" />
    <path
       style="fill:#c8b7b7;stroke-width:1.092"
       id="path57"
       d="m 117.70675,95.477301 -4.90702,-3.291948 -2.06112,5.537833 -1.14203,-5.797547 -5.37327,2.45841 3.29195,-4.907022 -5.53783,-2.061115 5.79755,-1.14203 -2.45841,-5.373269 4.90702,3.291948 2.06111,-5.537833 1.14203,5.797548 5.37327,-2.458411 -3.29195,4.907022 5.53784,2.061116 -5.79755,1.14203 z"
       transform="matrix(0.35871911,0,0,0.35402644,-1.8187077,0.29245207)" />
    <path
       style="fill:#c8b7b7;stroke-width:1.092"
       id="path58"
       d="m 33.708589,66.688343 -3.661471,-0.953736 -0.07649,3.782873 -1.914657,-3.263444 -2.72898,2.62081 0.953736,-3.66147 -3.782873,-0.07649 3.263444,-1.914658 -2.62081,-2.728979 3.66147,0.953736 0.07649,-3.782873 1.914658,3.263444 2.728979,-2.620811 -0.953736,3.661471 3.782873,0.07649 -3.263444,1.914657 z"
       transform="matrix(0.35871911,0,0,0.35402644,-1.8187077,0.29245207)" />
    <text
       xml:space="preserve"
       style="font-style:normal;font-variant:normal;font-weight:normal;font-stretch:normal;font-size:7.04021px;line-height:1.25;font-family:'Freestyle Script';-inkscape-font-specification:'Freestyle Script';stroke-width:0.0942881"
       x="5.7798314"
       y="35.858402"
       id="text68-6"
       transform="scale(1.0066057,0.99343762)"><tspan
         id="tspan68-14"
         style="font-style:normal;font-variant:normal;font-weight:normal;font-stretch:normal;font-size:7.04021px;font-family:'Freestyle Script';-inkscape-font-specification:'Freestyle Script';stroke-width:0.0942881"
         x="5.7798314"
         y="35.858402">Guten Tag</tspan></text>
    <path
       style="fill:#c8b7b7;stroke-width:1.092"
       id="path59"
       d="m 80.353985,37.899386 -4.4644,-1.311667 -0.237968,4.647011 -2.22932,-4.084296 -3.454201,3.117663 1.311666,-4.4644 -4.64701,-0.237968 4.084295,-2.229319 -3.117663,-3.454202 4.4644,1.311666 0.237969,-4.64701 2.229319,4.084296 3.454201,-3.117664 -1.311666,4.4644 4.64701,0.237969 -4.084295,2.229319 z"
       transform="matrix(0.35871911,0,0,0.35402644,-1.8187077,0.29245207)" />
    <path
       style="fill:#c8b7b7;stroke-width:1.092"
       id="path60"
       d="m 31.157668,25.326994 -6.301005,-2.43018 -0.898916,6.693308 -2.737087,-6.173879 -5.368514,4.097254 2.43018,-6.301005 -6.693308,-0.898916 6.173879,-2.737087 -4.097254,-5.368513 6.301005,2.430179 0.898916,-6.6933082 2.737087,6.1738792 5.368514,-4.097253 -2.43018,6.301004 6.693308,0.898917 -6.173879,2.737086 z"
       transform="matrix(0.35871911,0,0,0.35402644,-1.8187077,0.29245207)" />
    <path
       style="fill:#c8b7b7;stroke-width:1.092"
       id="path61"
       d="m 81.447238,113.15154 -6.178574,-1.99692 -0.505984,6.47352 -2.956876,-5.78095 -4.935254,4.21968 1.996919,-6.17857 -6.473519,-0.50598 5.780947,-2.95688 -4.219685,-4.93525 6.178575,1.99692 0.505983,-6.473523 2.956877,5.780943 4.935253,-4.219681 -1.996919,6.178571 6.473519,0.50599 -5.780947,2.95687 z"
       transform="matrix(0.35871911,0,0,0.35402644,-1.8187077,0.29245207)" />
    <path
       style="fill:#c8b7b7;stroke-width:1.092"
       id="path62"
       d="m 100.57914,117.88896 -8.036422,-1.12103 0.777771,8.07687 -4.889918,-6.4753 -5.161245,6.26118 1.121036,-8.03643 -8.076875,0.77778 6.475302,-4.88992 -6.26118,-5.16125 8.036424,1.12104 -0.777772,-8.07688 4.889918,6.47531 5.161245,-6.26118 -1.121036,8.03642 8.076872,-0.77777 -6.475299,4.88992 z"
       transform="matrix(0.35871911,0,0,0.35402644,-1.8187077,0.29245207)" />
    <path
       style="fill:#c8b7b7;stroke-width:1.092"
       id="path63"
       d="m 63.40859,41.725766 -5.206114,-1.452966 -0.202983,5.401253 -2.653877,-4.708681 -3.962793,3.675731 1.452966,-5.206114 -5.401252,-0.202983 4.70868,-2.653876 -3.675731,-3.962793 5.206114,1.452966 0.202983,-5.401253 2.653876,4.708681 3.962794,-3.675732 -1.452967,5.206114 5.401253,0.202983 -4.708681,2.653877 z"
       transform="matrix(0.35871911,0,0,0.35402644,-1.8187077,0.29245207)" />
    <path
       style="fill:#c8b7b7;stroke-width:1.092"
       id="path64"
       d="m 92.379751,46.827605 -6.195066,-1.641366 -0.156336,6.406909 -3.219952,-5.541194 -4.640915,4.419823 1.641365,-6.195066 -6.406909,-0.156336 5.541194,-3.219953 -4.419822,-4.640915 6.195066,1.641366 0.156336,-6.406909 3.219952,5.541194 4.640915,-4.419822 -1.641365,6.195066 6.406908,0.156336 -5.541193,3.219952 z"
       transform="matrix(0.35871911,0,0,0.35402644,-1.8187077,0.29245207)" />
    <path
       style="fill:#c8b7b7;stroke-width:1.092"
       id="path65"
       d="m 110.60061,20.58957 -8.97827,-1.556673 0.573,9.094193 -5.247866,-7.449334 -6.02539,6.835741 1.556674,-8.978277 -9.094193,0.573005 7.449334,-5.247866 -6.835741,-6.0253898 8.978276,1.5566731 -0.573004,-9.09419286 5.247866,7.44933416 6.025394,-6.83574085 -1.55668,8.97827635 9.0942,-0.5730046 -7.44934,5.2478655 z"
       transform="matrix(0.35871911,0,0,0.35402644,-1.8187077,0.29245207)" />
    <text
       xml:space="preserve"
       style="font-style:normal;font-variant:normal;font-weight:normal;font-stretch:normal;font-size:7.04021px;line-height:1.25;font-family:'Freestyle Script';-inkscape-font-specification:'Freestyle Script';stroke-width:0.0942881"
       x="23.506479"
       y="4.8854709"
       id="text68-6-5"
       transform="scale(1.0066057,0.99343762)"><tspan
         id="tspan68-14-4"
         style="font-style:normal;font-variant:normal;font-weight:normal;font-stretch:normal;font-size:7.04021px;font-family:'Freestyle Script';-inkscape-font-specification:'Freestyle Script';stroke-width:0.0942881"
         x="23.506479"
         y="4.8854709">Guten Tag</tspan></text>
    <path
       style="fill:#c8b7b7;stroke-width:1.092"
       id="path66"
       d="M 66.870551,9.1104292 61.2759,8.3520776 61.83882,13.969758 58.41904,9.4775072 54.844785,13.847852 55.603136,8.2532012 49.985456,8.8161216 54.477707,5.3963414 50.107362,1.822086 l 5.594651,0.7583515 -0.562921,-5.6176808 3.419781,4.4922512 3.574255,-4.370345 -0.758352,5.594651 5.617681,-0.5629203 -4.492251,3.4197801 z"
       transform="matrix(0.35871911,0,0,0.35402644,-1.8187077,0.29245207)" />
    <path
       style="fill:#c8b7b7;stroke-width:1.092"
       id="path67"
       d="m 14.941104,88.735583 -4.867052,-1.080921 0.08005,4.984996 -2.6771996,-4.205852 -3.468317,3.581531 1.0809203,-4.867052 -4.98499546,0.08005 4.20585196,-2.6772 -3.58153123,-3.468317 4.86705253,1.080921 -0.080055,-4.984996 2.6771997,4.205852 3.4683174,-3.581531 -1.080921,4.867053 4.984996,-0.08006 -4.205852,2.6772 z"
       transform="matrix(0.35871911,0,0,0.35402644,-1.8187077,0.29245207)" />
    <path
       style="fill:#c8b7b7;stroke-width:1.092"
       id="path68"
       d="m 29.153374,103.49448 -5.093045,-3.12242 -1.852987,5.67935 -1.393445,-5.80921 -5.326168,2.70565 3.122418,-5.093042 -5.679353,-1.852987 5.80921,-1.393444 -2.705649,-5.326168 5.093045,3.122417 1.852987,-5.679352 1.393445,5.809209 5.326168,-2.705649 -3.122418,5.093046 5.679352,1.852987 -5.809209,1.393444 z"
       transform="matrix(0.35871911,0,0,0.35402644,-1.8187077,0.29245207)" />
    <text
       xml:space="preserve"
       style="font-style:normal;font-variant:normal;font-weight:normal;font-stretch:normal;font-size:7.04021px;line-height:1.25;font-family:'Freestyle Script';-inkscape-font-specification:'Freestyle Script';stroke-width:0.0942881"
       x="0.66067255"
       y="9.7745686"
       id="text68"
       transform="scale(1.0066057,0.99343762)"><tspan
         id="tspan68"
         style="font-style:normal;font-variant:normal;font-weight:normal;font-stretch:normal;font-size:7.04021px;font-family:'Freestyle Script';-inkscape-font-specification:'Freestyle Script';stroke-width:0.0942881"
         x="0.66067255"
         y="9.7745686">Guten Tag</tspan></text>
  </g>
</svg>
