<?xml version="1.0" encoding="UTF-8" standalone="no"?>
<!-- Created with Inkscape (http://www.inkscape.org/) -->

<svg
   width="2000"
   height="200"
   viewBox="0 0 529.16666 52.916666"
   version="1.1"
   id="svg1"
   xmlns="http://www.w3.org/2000/svg"
   xmlns:svg="http://www.w3.org/2000/svg">
  <defs
     id="defs1" />
  <g
     id="layer1">
    <path
       style="fill:#e9afaf;stroke-width:1.092"
       id="path1"
       d="M 31.339878,27.695706 16.071703,22.183404 12.567029,38.033322 5.6685855,23.339306 -8.017178,32.068712 -2.5048757,16.800537 -18.354794,13.295863 -3.6607779,6.3974196 -12.390184,-7.2883439 2.8779907,-1.7760415 6.3826644,-17.62596 13.281108,-2.9319437 26.966872,-11.66135 21.454569,3.6068249 37.304488,7.1114986 22.610472,14.009942 Z" />
    <path
       style="fill:#e9afaf;stroke-width:1.092"
       id="path2"
       d="m 59.035583,31.33988 -2.567646,16.050666 16.24754,0.483882 -13.165135,9.533935 11.14659,11.830902 -16.050667,-2.567646 -0.483881,16.24754 -9.533935,-13.165135 -11.830902,11.14659 2.567646,-16.050667 -16.24754,-0.483881 13.165135,-9.533935 -11.14659,-11.830902 16.050666,2.567646 0.483882,-16.24754 9.533935,13.165135 z" />
    <path
       style="fill:#e9afaf;stroke-width:1.092"
       id="path3"
       d="M 90.375463,18.949693 78.280826,8.3392861 69.312519,21.697073 68.263009,5.6421814 52.476077,8.7460121 63.086484,-3.3486256 49.728698,-12.316933 l 16.054891,-1.049509 -3.103831,-15.786932 12.094638,10.610407 8.968307,-13.357787 1.049509,16.054892 15.786928,-3.103831 -10.610403,12.0946376 13.357783,8.968307 -16.054887,1.0495095 z" />
    <path
       style="fill:#e9afaf;stroke-width:1.092"
       id="path4"
       d="M 120.25767,51.018403 107.38054,43.352652 101.43302,57.108061 97.748021,42.582051 83.815949,48.103066 91.4817,35.225937 77.726291,29.278421 92.252301,25.59342 86.731287,11.661349 99.608416,19.3271 105.55593,5.5716913 l 3.685,14.5260097 13.93207,-5.521014 -7.66575,12.877129 13.75541,5.947515 -14.52601,3.685001 z" />
    <path
       style="fill:#e9afaf;stroke-width:1.092"
       id="path5"
       d="M 177.10675,11.661349 159.43011,5.630291 155.72046,23.935372 147.48579,7.1714938 131.91902,17.492024 137.95008,-0.18462108 119.645,-3.8942681 l 16.76388,-8.2346729 -10.32053,-15.566764 17.67664,6.031059 3.70965,-18.305081 8.23467,16.763878 15.56677,-10.32053 -6.03106,17.676645 18.30508,3.709647 -16.76388,8.2346732 z" />
    <path
       style="fill:#e9afaf;stroke-width:1.092"
       id="path6"
       d="m 215.00613,52.476076 -14.86821,-5.648527 -3.69117,15.470779 -6.5193,-14.507527 -13.54954,8.329447 5.64853,-14.868216 -15.47078,-3.691163 14.50752,-6.519304 -8.32944,-13.549539 14.86821,5.648526 3.69117,-15.4707789 6.5193,14.5075269 13.54954,-8.329446 -5.64853,14.868215 15.47078,3.691163 -14.50753,6.519305 z" />
    <path
       style="fill:#e9afaf;stroke-width:1.092"
       id="path7"
       d="m 267.4822,14.576687 -15.78693,-3.10383 -1.04951,16.05489 -8.96831,-13.357785 -12.09464,10.610406 3.10383,-15.7869317 -16.05489,-1.0495099 13.35779,-8.9683073 -10.61041,-12.0946371 15.78693,3.10383 1.04951,-16.054891 8.96831,13.357786 12.09464,-10.610406 -3.10383,15.7869314 16.05489,1.0495099 -13.35779,8.9683073 z" />
    <path
       style="fill:#e9afaf;stroke-width:1.092"
       id="path8"
       d="m 303.1951,52.476072 -12.58725,-4.193625 -2.54142,13.021775 -5.9352,-11.865872 -11.00484,7.410728 4.19363,-12.587254 -13.02178,-2.541422 11.86587,-5.935192 -7.41073,-11.004843 12.58726,4.193625 2.54142,-13.021775 5.93519,11.865873 11.00485,-7.410729 -4.19363,12.587254 13.02178,2.541422 -11.86588,5.935192 z" />
    <path
       style="fill:#e9afaf;stroke-width:1.092"
       id="path9"
       d="m 349.11165,16.034355 -14.33203,-5.38479 -3.49852,14.905149 -6.32665,-13.941896 -13.01336,8.065709 5.38479,-14.3320297 -14.90514,-3.4985132 13.94189,-6.3266539 -8.06571,-13.0133542 14.33203,5.38479 3.49852,-14.905149 6.32665,13.941897 13.01335,-8.06571 -5.38479,14.33203 14.90515,3.4985133 -13.94189,6.3266538 z" />
    <path
       style="fill:#e9afaf;stroke-width:1.092"
       id="path10"
       d="m 393.57054,47.374232 -13.39588,-5.257279 -3.49236,13.960382 -5.75486,-13.18978 -12.34095,7.402015 5.25728,-13.395887 -13.96038,-3.492352 13.18978,-5.754865 -7.40201,-12.340946 13.39588,5.257279 3.49235,-13.9603815 5.75487,13.1897795 12.34095,-7.402014 -5.25728,13.395886 13.96038,3.492352 -13.18978,5.754865 z" />
    <path
       style="fill:#e9afaf;stroke-width:1.092"
       id="path11"
       d="m 443.13128,16.763189 -15.25946,-4.176196 -2.18077,15.669588 -7.83705,-13.743085 -12.62211,9.538037 4.1762,-15.2594602 -15.66959,-2.1807674 13.74309,-7.8370503 -9.53804,-12.6221071 15.25946,4.1761966 2.18077,-15.6695876 7.83705,13.743084 12.62211,-9.538036 -4.1762,15.2594595 15.66959,2.1807674 -13.74309,7.8370503 z" />
    <path
       style="fill:#e9afaf;stroke-width:1.092"
       id="path12"
       d="m 468.64049,56.120245 -9.405,-7.955625 -6.68115,10.349315 -1.02486,-12.275818 -12.04236,2.593786 7.95562,-9.405004 -10.34931,-6.681148 12.27582,-1.024866 -2.59379,-12.042355 9.40501,7.955625 6.68114,-10.349315 1.02487,12.275818 12.04235,-2.593786 -7.95562,9.405004 10.34931,6.681148 -12.27581,1.024865 z" />
    <path
       style="fill:#e9afaf;stroke-width:1.092"
       id="path13"
       d="m 507.99756,18.220859 -10.19621,-6.347073 -4.98426,10.927266 -2.72176,-11.697868 -11.25115,4.202338 6.34708,-10.19621 -10.92727,-4.98426381 11.69787,-2.72175029 -4.20234,-11.2511509 10.19621,6.3470735 4.98427,-10.9272665 2.72175,11.697868 11.25115,-4.202337 -6.34708,10.19620931 10.92727,4.98426379 -11.69787,2.7217504 z" />
    <path
       style="fill:#e9afaf;stroke-width:1.092"
       id="path14"
       d="m 510.91288,53.204909 -5.66043,-7.445582 -6.65651,6.570244 1.2623,-9.267349 -9.35273,-0.06099 7.44559,-5.660429 -6.57025,-6.656503 9.26735,1.262294 0.061,-9.352723 5.66042,7.445582 6.65651,-6.570244 -1.2623,9.267349 9.35273,0.06099 -7.44559,5.660429 6.57025,6.656504 -9.26735,-1.262294 z" />
    <path
       style="fill:#e9afaf;stroke-width:1.092"
       id="path15"
       d="m 239.7865,37.170552 -4.14454,-0.373819 0.16185,4.15821 -2.6663,-3.194959 -2.82586,3.05474 0.37382,-4.144534 -4.15821,0.161843 3.19496,-2.666298 -3.05474,-2.825858 4.14453,0.37382 -0.16184,-4.158211 2.6663,3.194959 2.82586,-3.05474 -0.37382,4.144535 4.15821,-0.161844 -3.19496,2.666298 z" />
    <path
       style="fill:#e9afaf;stroke-width:1.092"
       id="path16"
       d="m 148.68222,31.339876 -5.88932,-1.564985 -0.79524,6.041585 -3.05776,-5.270983 -4.83437,3.709721 1.56498,-5.889311 -6.04158,-0.795247 5.27098,-3.05776 -3.70972,-4.83437 5.88931,1.564985 0.79525,-6.041585 3.05776,5.270983 4.83437,-3.709721 -1.56499,5.889311 6.04159,0.795247 -5.27099,3.05776 z" />
    <path
       style="fill:#e9afaf;stroke-width:1.092"
       id="path17"
       d="m 51.74724,23.3227 -4.680718,-0.637555 -0.03081,4.723839 -2.858948,-3.760587 -3.362042,3.318474 0.637555,-4.680718 -4.723839,-0.03081 3.760587,-2.858948 -3.318475,-3.362042 4.680718,0.637555 0.03081,-4.723839 2.858949,3.760587 3.362041,-3.318475 -0.637554,4.680719 4.723838,0.03081 -3.760587,2.858949 z" />
    <path
       style="fill:#e9afaf;stroke-width:1.092"
       id="path18"
       d="m 332.34848,47.374232 -1.63469,-4.799516 -4.54967,2.237869 2.23786,-4.549673 -4.79951,-1.634692 4.79951,-1.634693 -2.23786,-4.549672 4.54967,2.237868 1.63469,-4.799516 1.63469,4.799516 4.54967,-2.237868 -2.23786,4.549672 4.79951,1.634692 -4.79951,1.634693 2.23787,4.549672 -4.54968,-2.237868 z" />
    <path
       style="fill:#e9afaf;stroke-width:1.092"
       id="path19"
       d="m 416.16443,38.628221 -4.68943,-1.973658 -1.35472,4.904167 -1.92034,-4.711516 -4.4257,2.509842 1.97366,-4.689432 -4.90416,-1.354714 4.71151,-1.920342 -2.50984,-4.425697 4.68943,1.973658 1.35472,-4.904166 1.92034,4.711516 4.42569,-2.509842 -1.97365,4.689432 4.90416,1.354714 -4.71151,1.920342 z" />
    <path
       style="fill:#e9afaf;stroke-width:1.092"
       id="path20"
       d="m 158.8859,49.560735 -3.88951,-2.246106 -1.7277,4.145887 -1.16206,-4.338538 -4.15325,1.709923 2.24611,-3.889512 -4.14589,-1.727692 4.33854,-1.162063 -1.70992,-4.153248 3.88951,2.246106 1.72769,-4.145887 1.16206,4.338538 4.15325,-1.709923 -2.2461,3.889513 4.14588,1.727691 -4.33853,1.162064 z" />
    <path
       style="fill:#e9afaf;stroke-width:1.092"
       id="path21"
       d="m 256.54968,48.831903 -1.08979,-3.199677 -3.03312,1.491912 1.49191,-3.033115 -3.19967,-1.089795 3.19967,-1.089795 -1.49191,-3.033114 3.03312,1.491912 1.08979,-3.199677 1.0898,3.199677 3.03311,-1.491912 -1.49191,3.033114 3.19968,1.089795 -3.19968,1.089795 1.49191,3.033115 -3.03311,-1.491912 z" />
    <path
       style="fill:#e9afaf;stroke-width:1.092"
       id="path22"
       d="m 297.36441,12.390184 -4.14453,-0.373819 0.16184,4.15821 -2.6663,-3.194958 -2.82586,3.054739 0.37382,-4.144534 -4.15821,0.161843 3.19496,-2.6662977 -3.05474,-2.8258579 4.14454,0.3738194 -0.16185,-4.1582103 2.6663,3.1949586 2.82586,-3.0547395 -0.37382,4.1445344 4.15821,-0.1618437 -3.19496,2.6662981 z" />
    <path
       style="fill:#ff8080;stroke-width:1.092"
       id="path23"
       d="m 429.28343,50.289569 -2.15345,-2.391044 -2.09451,2.442841 0.168,-3.213442 -3.20839,0.246308 2.39105,-2.153449 -2.44284,-2.094509 3.21344,0.168005 -0.24631,-3.208391 2.15345,2.391045 2.09451,-2.442842 -0.16801,3.213443 3.20839,-0.246308 -2.39104,2.153449 2.44284,2.094509 -3.21344,-0.168005 z" />
    <path
       style="fill:#ff8080;stroke-width:1.092"
       id="path24"
       d="m 65.595093,18.22086 -1.770917,-5.199476 -4.928811,2.424357 2.424357,-4.928812 -5.199476,-1.7709161 5.199476,-1.7709169 -2.424358,-4.9288116 4.928812,2.4243572 1.770917,-5.19947575 1.770916,5.19947575 4.928812,-2.4243575 -2.424357,4.9288119 5.199476,1.7709164 -5.199476,1.7709166 2.424357,4.928812 -4.928811,-2.424357 z" />
    <path
       style="fill:#ff8080;stroke-width:1.092"
       id="path25"
       d="m 104.22331,34.255215 -5.599434,1.907141 2.610844,5.307951 -5.307949,-2.610847 -1.907141,5.599436 -1.907141,-5.599436 -5.307951,2.610847 2.610847,-5.307951 -5.599436,-1.907141 5.599436,-1.907141 -2.610847,-5.307951 5.307951,2.610846 1.907141,-5.599435 1.907141,5.599435 5.307949,-2.610846 -2.610844,5.307951 z" />
    <path
       style="fill:#ff8080;stroke-width:1.092"
       id="path26"
       d="m 180.02208,19.678528 -4.44312,-5.182049 -4.56815,5.072172 0.52249,-6.806025 -6.81674,0.356393 5.18205,-4.4431233 -5.07217,-4.5681558 6.80602,0.5224986 -0.35639,-6.8167408 4.44313,5.1820484 4.56815,-5.0721715 -0.5225,6.8060244 6.81674,-0.3563929 -5.18205,4.4431236 5.07218,4.5681563 -6.80603,-0.522499 z" />
    <path
       style="fill:#ff8080;stroke-width:1.092"
       id="path27"
       d="m 252.17668,16.76319 -8.434,-2.483702 -1.37936,8.683238 -4.2075,-7.719986 -7.11533,5.164622 2.4837,-8.434007 -8.68324,-1.379359 7.71999,-4.2075004 -5.16463,-7.11533078 8.43401,2.48370238 1.37936,-8.6832382 4.2075,7.71998629 7.11533,-5.16462249 -2.4837,8.434007 8.68324,1.379359 -7.71999,4.2075008 z" />
    <path
       style="fill:#ff8080;stroke-width:1.092"
       id="path28"
       d="m 217.92147,48.103067 -6.56172,-2.228679 -1.36703,6.793701 -3.06393,-6.21575 -5.77051,3.837231 2.22868,-6.561719 -6.7937,-1.367036 6.21575,-3.063921 -3.83723,-5.770513 6.56172,2.228679 1.36703,-6.793701 3.06392,6.21575 5.77052,-3.837231 -2.22868,6.561719 6.7937,1.367036 -6.21575,3.063921 z" />
    <path
       style="fill:#ff8080;stroke-width:1.092"
       id="path29"
       d="m 304.65277,47.374235 -9.36144,-1.275109 -0.0616,9.447677 -5.7179,-7.521174 -6.72408,6.63695 1.27511,-9.361437 -9.44768,-0.06161 7.52117,-5.717897 -6.63695,-6.724084 9.36144,1.27511 0.0616,-9.447678 5.7179,7.521174 6.72408,-6.636949 -1.27511,9.361436 9.44768,0.06161 -7.52117,5.717896 z" />
    <path
       style="fill:#ff8080;stroke-width:1.092"
       id="path30"
       d="m 377.53619,20.407363 -7.74417,0.8522 1.84025,7.570464 -6.07856,-4.87336 -4.05187,6.654376 -0.8522,-7.744171 -7.57047,1.840245 4.87336,-6.078552 -6.65437,-4.051877 7.74417,-0.8522 -1.84025,-7.5704641 6.07856,4.8733591 4.05187,-6.6543757 0.8522,7.7441707 7.57047,-1.840244 -4.87336,6.078552 z" />
    <path
       style="fill:#ff8080;stroke-width:1.092"
       id="path31"
       d="m 424.91044,6.5595092 -5.48064,-0.3651061 0.34217,5.4821179 -3.61722,-4.1335655 -3.63449,4.1183945 0.3651,-5.4806381 -5.48211,0.3421715 4.13356,-3.6172272 -4.11839,-3.63449074 5.48063,0.36510604 -0.34217,-5.4821175 3.61723,4.1335651 3.63449,-4.1183942 -0.36511,5.48063783 5.48212,-0.34217149 -4.13356,3.61722726 z" />
    <path
       style="fill:#ff8080;stroke-width:1.092"
       id="path32"
       d="m 470.09817,23.322699 -9.36144,-1.27511 -0.0616,9.447678 -5.7179,-7.521174 -6.72408,6.636949 1.27511,-9.361437 -9.44768,-0.06161 7.52118,-5.717897 -6.63695,-6.7240834 9.36143,1.2751094 0.0616,-9.44767734 5.71789,7.52117404 6.72409,-6.6369497 -1.27511,9.361437 9.44768,0.06161 -7.52118,5.717897 z" />
    <path
       style="fill:#ff8080;stroke-width:1.092"
       id="path33"
       d="m 487.59019,53.93374 0.0839,-7.61666 -7.5643,0.895477 5.44515,-5.326435 -5.98197,-4.715571 7.61666,0.08394 -0.89548,-7.564303 5.32644,5.445149 4.71557,-5.981968 -0.0839,7.61666 7.5643,-0.895477 -5.44515,5.326435 5.98197,4.715572 -7.61666,-0.08394 0.89548,7.564302 -5.32644,-5.445149 z" />
    <path
       style="fill:#ff5555;stroke-width:1.092"
       id="path34"
       d="m 24.051534,44.458897 -7.897822,-2.219966 -1.186709,8.117608 -4.014851,-7.154357 -6.5791456,4.900887 2.2199665,-7.897823 -8.1176088,-1.186708 7.1543571,-4.014851 -4.90088648,-6.579146 7.89782248,2.219967 1.1867087,-8.117609 4.0148501,7.154357 6.579146,-4.900887 -2.219966,7.897823 8.117609,1.186709 -7.154357,4.01485 z" />
    <path
       style="fill:#ff5555;stroke-width:1.092"
       id="path36"
       d="m 124.71803,47.928827 2.26868,0.174167 -0.1188,-2.272247 1.48104,1.727349 1.52272,-1.690724 -0.17417,2.268675 2.27225,-0.118797 -1.72735,1.481041 1.69072,1.522718 -2.26867,-0.174166 0.1188,2.272247 -1.48105,-1.727349 -1.52271,1.690723 0.17416,-2.268674 -2.27224,0.118797 1.72734,-1.481041 z" />
    <path
       style="fill:#f4d7d7;stroke-width:1.092"
       id="path37"
       d="m 47.41346,33.498642 -4.838648,-3.08631 -2.438968,5.195118 -1.23909,-5.603792 -5.398114,1.948893 3.08631,-4.838648 -5.195118,-2.438968 5.603792,-1.23909 -1.948893,-5.398114 4.838648,3.08631 2.438968,-5.195118 1.23909,5.603792 5.398114,-1.948893 -3.08631,4.838648 5.195118,2.438968 -5.603792,1.23909 z" />
    <path
       style="fill:#f4d7d7;stroke-width:1.092"
       id="path38"
       d="m 85.550377,51.536373 -0.602597,-5.475956 -5.353126,1.30125 3.445985,-4.298186 -4.705354,-2.865109 5.475956,-0.602597 -1.30125,-5.353126 4.298186,3.445985 2.86511,-4.705354 0.602596,5.475956 5.353127,-1.30125 -3.445986,4.298186 4.705354,2.86511 -5.475956,0.602596 1.30125,5.353127 -4.298186,-3.445986 z" />
    <path
       style="fill:#f4d7d7;stroke-width:1.092"
       id="path39"
       d="m 155.12447,15.460911 -5.39812,-1.948893 -1.23909,5.603792 -2.43896,-5.195118 -4.83865,3.08631 1.94889,-5.398114 -5.60379,-1.23909 5.19512,-2.4389683 -3.08631,-4.8386478 5.39811,1.9488926 1.23909,-5.60379178 2.43897,5.19511858 4.83865,-3.0863105 -1.9489,5.3981146 5.6038,1.2390895 -5.19512,2.4389681 z" />
    <path
       style="fill:#f4d7d7;stroke-width:1.092"
       id="path40"
       d="m 193.77676,21.129912 -2.76879,-4.422541 -4.03009,3.314118 1.16938,-5.085034 -5.19314,-0.506272 4.42254,-2.768784 -3.31412,-4.0300941 5.08504,1.1693825 0.50627,-5.1931422 2.76878,4.4225407 4.0301,-3.314118 -1.16939,5.0850346 5.19314,0.5062715 -4.42254,2.768784 3.31412,4.030094 -5.08503,-1.169382 z" />
    <path
       style="fill:#f4d7d7;stroke-width:1.092"
       id="path41"
       d="m 276.75033,31.437188 -6.71586,-1.184453 -0.31166,6.812385 -3.9113,-5.586366 -5.03746,4.596708 1.18446,-6.715861 -6.81239,-0.31166 5.58637,-3.911296 -4.59671,-5.03746 6.71586,1.184453 0.31166,-6.812385 3.9113,5.586366 5.03746,-4.596707 -1.18446,6.715861 6.81239,0.311659 -5.58637,3.911296 z" />
    <path
       style="fill:#f4d7d7;stroke-width:1.092"
       id="path42"
       d="m 326.7406,15.976275 -3.79756,-2.809658 -2.29838,4.127107 -0.69855,-4.672005 -4.54351,1.293101 2.80966,-3.797555 -4.12711,-2.2983872 4.672,-0.6985485 -1.2931,-4.5435111 3.79756,2.809658 2.29838,-4.1271077 0.69855,4.672005 4.54351,-1.2931005 -2.80965,3.7975547 4.1271,2.2983873 -4.672,0.698549 z" />
    <path
       style="fill:#f4d7d7;stroke-width:1.092"
       id="path43"
       d="m 379.30769,49.990283 -6.43305,-1.280779 -0.44352,6.544293 -3.64321,-5.454498 -4.94113,4.313893 1.28077,-6.433046 -6.54429,-0.443527 5.4545,-3.643204 -4.31389,-4.941135 6.43304,1.280779 0.44353,-6.544293 3.6432,5.454498 4.94114,-4.313894 -1.28078,6.433047 6.54429,0.443527 -5.45449,3.643204 z" />
    <path
       style="fill:#f4d7d7;stroke-width:1.092"
       id="path44"
       d="m 434.96696,25.252822 -6.25272,-2.604686 -1.77963,6.53558 -2.57954,-6.263131 -5.87975,3.362964 2.60469,-6.252719 -6.53558,-1.77963 6.26313,-2.579549 -3.36296,-5.8797414 6.25272,2.6046854 1.77963,-6.5355795 2.57954,6.2631305 5.87975,-3.3629639 -2.60469,6.2527189 6.53558,1.77963 -6.26313,2.579549 z" />
    <path
       style="fill:#f4d7d7;stroke-width:1.092"
       id="path45"
       d="m 473.10388,51.021011 -6.54785,-4.397897 -3.52005,7.058694 -1.52025,-7.739815 -7.48031,2.502199 4.3979,-6.547856 -7.05869,-3.52005 7.73981,-1.520251 -2.5022,-7.480302 6.54786,4.397896 3.52005,-7.058693 1.52025,7.739815 7.4803,-2.502199 -4.39789,6.547856 7.05869,3.52005 -7.73982,1.520251 z" />
    <path
       style="fill:#f4d7d7;stroke-width:1.092"
       id="path46"
       d="m 506.60252,15.460911 -6.43305,-1.280778 -0.44352,6.544293 -3.64321,-5.454499 -4.94113,4.313894 1.28078,-6.433047 -6.5443,-0.443526 5.4545,-3.6432043 -4.31389,-4.9411346 6.43304,1.2807786 0.44353,-6.5442933 3.6432,5.4544985 L 502.47961,-8.1288615e-7 501.19883,6.4330464 l 6.54429,0.4435262 -5.45449,3.6432044 z" />
    <path
       style="fill:#f4d7d7;stroke-width:1.092"
       id="path47"
       d="m 525.67098,39.683007 -5.89206,-5.2525 -4.45184,6.518153 -0.45224,-7.880396 -7.75695,1.461106 5.2525,-5.892064 -6.51816,-4.451836 7.8804,-0.45224 -1.46111,-7.756954 5.89207,5.2525 4.45183,-6.518153 0.45224,7.880396 7.75696,-1.461106 -5.2525,5.892063 6.51815,4.451837 -7.8804,0.45224 z" />
    <path
       style="fill:#f4d7d7;stroke-width:1.092"
       id="path48"
       d="m 119.56438,16.491639 -7.10732,-3.260477 -2.32017,7.467366 -2.72013,-7.331142 -6.92084,3.639617 3.26048,-7.107323 -7.467367,-2.3201706 7.331137,-2.7201304 -3.639612,-6.9208338 7.107322,3.2604777 2.32017,-7.4673665 2.72013,7.3311421 6.92084,-3.6396171 -3.26048,7.107323 7.46736,2.3201705 -7.33114,2.7201305 z" />
    <path
       style="fill:#f4d7d7;stroke-width:1.092"
       id="path49"
       d="m 39.683007,57.720737 -6.547856,-4.397896 -3.52005,7.058693 -1.520251,-7.739815 -7.480301,2.502199 4.397896,-6.547856 -7.058694,-3.52005 7.739815,-1.520251 -2.502199,-7.480302 6.547856,4.397896 3.52005,-7.058693 1.520252,7.739815 7.480301,-2.502199 -4.397896,6.547856 7.058694,3.52005 -7.739816,1.520251 z" />
    <path
       style="fill:#f4d7d7;stroke-width:1.092"
       id="path50"
       d="m 19.583822,5.1536374 -7.35317,2.5044542 3.42856,6.9703924 L 8.688819,11.199925 6.1843648,18.553094 3.6799106,11.199925 -3.2904821,14.628484 0.13807761,7.6580916 -7.2150922,5.1536374 0.1380776,2.6491833 -3.2904821,-4.3212095 3.6799106,-0.89264978 6.1843648,-8.2458196 8.6888189,-0.89264979 15.659212,-4.3212095 12.230652,2.6491832 Z" />
    <path
       style="fill:#f4d7d7;stroke-width:1.092"
       id="path51"
       d="m 168.00858,57.720737 -4.77313,-7.527337 -6.8516,5.700807 1.94752,-8.697742 -8.87589,-0.813731 7.52734,-4.773128 -5.70081,-6.851596 8.69774,1.947519 0.81374,-8.875889 4.77312,7.527337 6.8516,-5.700807 -1.94752,8.697742 8.87589,0.813731 -7.52734,4.773128 5.70081,6.851596 -8.69774,-1.947519 z" />
  </g>
</svg>
