<?xml version="1.0" encoding="UTF-8" standalone="no"?>
<!-- Created with Inkscape (http://www.inkscape.org/) -->

<svg
   width="210mm"
   height="297mm"
   viewBox="0 0 210 297"
   version="1.1"
   id="svg1"
   xmlns:xlink="http://www.w3.org/1999/xlink"
   xmlns="http://www.w3.org/2000/svg"
   xmlns:svg="http://www.w3.org/2000/svg">
  <defs
     id="defs1">
    <linearGradient
       id="swatch10">
      <stop
         style="stop-color:#000000;stop-opacity:1;"
         offset="0"
         id="stop10" />
    </linearGradient>
    <linearGradient
       id="swatch9">
      <stop
         style="stop-color:#000000;stop-opacity:1;"
         offset="0"
         id="stop9" />
    </linearGradient>
    <linearGradient
       id="swatch8">
      <stop
         style="stop-color:#000000;stop-opacity:1;"
         offset="0"
         id="stop8" />
    </linearGradient>
    <linearGradient
       id="swatch7">
      <stop
         style="stop-color:#000000;stop-opacity:1;"
         offset="0"
         id="stop7" />
    </linearGradient>
    <linearGradient
       id="swatch6">
      <stop
         style="stop-color:#000000;stop-opacity:1;"
         offset="0"
         id="stop6" />
    </linearGradient>
    <linearGradient
       id="swatch5">
      <stop
         style="stop-color:#000000;stop-opacity:1;"
         offset="0"
         id="stop5" />
    </linearGradient>
    <linearGradient
       id="swatch4">
      <stop
         style="stop-color:#000000;stop-opacity:1;"
         offset="0"
         id="stop4" />
    </linearGradient>
    <linearGradient
       id="swatch3">
      <stop
         style="stop-color:#000000;stop-opacity:1;"
         offset="0"
         id="stop3" />
    </linearGradient>
    <linearGradient
       xlink:href="#swatch3"
       id="linearGradient3"
       x1="75.00692"
       y1="146.14079"
       x2="116.18606"
       y2="146.14079"
       gradientUnits="userSpaceOnUse" />
    <linearGradient
       xlink:href="#swatch4"
       id="linearGradient4"
       x1="-32.966975"
       y1="179.57732"
       x2="8.212163"
       y2="179.57732"
       gradientUnits="userSpaceOnUse" />
    <linearGradient
       xlink:href="#swatch5"
       id="linearGradient5"
       x1="-141.62401"
       y1="124.64766"
       x2="-100.44487"
       y2="124.64766"
       gradientUnits="userSpaceOnUse" />
    <linearGradient
       xlink:href="#swatch6"
       id="linearGradient6"
       x1="130.33519"
       y1="-9.7504549"
       x2="171.51433"
       y2="-9.7504549"
       gradientUnits="userSpaceOnUse" />
    <linearGradient
       xlink:href="#swatch7"
       id="linearGradient7"
       x1="76.527603"
       y1="87.642326"
       x2="117.70674"
       y2="87.642326"
       gradientUnits="userSpaceOnUse" />
    <linearGradient
       xlink:href="#swatch8"
       id="linearGradient8"
       x1="-32.521944"
       y1="120.67284"
       x2="8.6571941"
       y2="120.67284"
       gradientUnits="userSpaceOnUse" />
    <linearGradient
       xlink:href="#swatch9"
       id="linearGradient9"
       x1="-140.01871"
       y1="67.501915"
       x2="-98.839569"
       y2="67.501915"
       gradientUnits="userSpaceOnUse" />
    <linearGradient
       xlink:href="#swatch10"
       id="linearGradient10"
       x1="124.71291"
       y1="65.152832"
       x2="165.89204"
       y2="65.152832"
       gradientUnits="userSpaceOnUse" />
  </defs>
  <g
     id="layer1">
    <ellipse
       style="fill:#e9afaf;stroke-width:1.092;stroke:url(#linearGradient7)"
       id="path1"
       cx="97.117172"
       cy="87.642326"
       rx="20.589569"
       ry="25.326992" />
    <ellipse
       style="fill:#e9afaf;stroke-width:1.092;stroke:url(#linearGradient3)"
       id="path1-8"
       cx="95.596489"
       cy="146.14079"
       rx="20.589569"
       ry="25.326992" />
    <ellipse
       style="fill:#e9afaf;stroke-width:1.092;stroke:url(#linearGradient5)"
       id="path1-1"
       cx="-121.03444"
       cy="124.64766"
       rx="20.589569"
       ry="25.326992"
       transform="rotate(-90)" />
    <ellipse
       style="fill:#e9afaf;stroke-width:1.092;stroke:url(#linearGradient9)"
       id="path1-1-2"
       cx="-119.42914"
       cy="67.501915"
       rx="20.589569"
       ry="25.326992"
       transform="rotate(-90)" />
    <ellipse
       style="fill:#e9afaf;stroke-width:1.092;stroke:url(#linearGradient8)"
       id="path1-1-23"
       cx="-11.932375"
       cy="120.67284"
       rx="20.589569"
       ry="25.326992"
       transform="rotate(-43.168717)" />
    <ellipse
       style="fill:#e9afaf;stroke-width:1.092;stroke:url(#linearGradient4)"
       id="path1-1-23-8"
       cx="-12.377406"
       cy="179.57732"
       rx="20.589569"
       ry="25.326992"
       transform="rotate(-43.168717)" />
    <ellipse
       style="fill:#e9afaf;stroke-width:1.092;stroke:url(#linearGradient6)"
       id="path1-1-23-89"
       cx="150.92476"
       cy="-9.7504549"
       rx="20.589569"
       ry="25.326992"
       transform="rotate(43.07632)" />
    <ellipse
       style="fill:#e9afaf;stroke-width:1.092;stroke:url(#linearGradient10)"
       id="path1-1-23-4"
       cx="145.30247"
       cy="65.152832"
       rx="20.589569"
       ry="25.326992"
       transform="rotate(37.433235)" />
    <ellipse
       style="fill:#e9afaf;stroke-width:1.092"
       id="path2"
       cx="73.794479"
       cy="98.75705"
       rx="2.0042944"
       ry="1.4576688" />
    <path
       style="fill:none;fill-rule:evenodd;stroke:#000000;stroke-width:0.264583"
       id="path3"
       d="m 6.5595088,116.97791 c 0.071258,0.0822 -0.075676,0.13662 -0.1366566,0.11844 -0.1652536,-0.0493 -0.1768841,-0.26629 -0.1002142,-0.39175 0.1371445,-0.22442 0.4520045,-0.22937 0.6468406,-0.082 0.2859298,0.21628 0.2836244,0.64031 0.063772,0.90193 -0.2930289,0.34869 -0.8295624,0.33864 -1.1570246,0.0455 -0.4120777,-0.36882 -0.3940538,-1.01925 -0.02733,-1.41212 0.4441523,-0.47581 1.2091952,-0.44969 1.6672087,-0.009 0.5397531,0.51921 0.5054872,1.39929 -0.00911,1.9223 -0.5941262,0.60383 -1.5894984,0.56137 -2.1773927,-0.0273 -0.6680029,-0.66892 -0.6173266,-1.77977 0.045555,-2.43248 0.7436533,-0.73224 1.9701072,-0.67333 2.6875767,0.0638 0.7965271,0.81833 0.7293684,2.16048 -0.081998,2.94267 -0.8929611,0.86085 -2.3508816,0.78544 -3.1977607,-0.10022 -0.9252032,-0.96756 -0.8415253,-2.54131 0.1184401,-3.45285 1.0421451,-0.98958 2.7317558,-0.89763 3.7079447,0.13666 1.0539719,1.11671 0.9537539,2.92222 -0.1548825,3.96304 -1.1912526,1.11838 -3.112695,1.00989 -4.2181287,-0.17311 -1.1828012,-1.26578 -1.0660301,-3.30318 0.1913248,-4.47322 1.3403095,-1.24723 3.4936788,-1.12218 4.7283128,0.20955 1.3116718,1.41482 1.1783398,3.68418 -0.2277672,4.9834 -1.4893309,1.37612 -3.8746945,1.23451 -5.2384968,-0.24598 -1.4405735,-1.56384 -1.2906727,-4.06522 0.2642096,-5.49359 1.6383268,-1.50504 4.2557338,-1.34685 5.7486808,0.28243 1.5694974,1.71282 1.4030244,4.44626 -0.300652,6.00377 -1.7873036,1.63397 -4.6367912,1.45921 -6.2588649,-0.31887 -1.6984374,-1.86179 -1.515389,-4.82733 0.3370945,-6.51396 1.9362658,-1.76291 5.0178626,-1.57157 6.7690488,0.35532 1.827391,2.01074 1.627765,5.2084 -0.3735368,7.02414 -2.0852165,1.89187 -5.3989451,1.68395 -7.2792329,-0.39176 -1.95635564,-2.15969 -1.74014952,-5.58949 0.4099792,-7.53433 2.2341581,-2.02084 5.7800368,-1.79634 7.7894165,0.42821 2.085329,2.30862 1.852542,5.97058 -0.446421,8.0445 -2.3830923,2.14982 -6.1611358,1.90874 -8.2996011,-0.46464 -2.21430855,-2.45756 -1.96493844,-6.35169 0.482864,-8.55469 2.5320202,-2.2788 6.5422408,-2.02114 8.8097851,0.50108 2.343294,2.60649 2.07734,6.7328 -0.519306,9.06488 -2.6809436,2.40779 -6.9233515,2.13354 -9.3199695,-0.53753 -2.47228497,-2.7554 -2.18974675,-7.1139 0.5557488,-9.57506 2.8298617,-2.53678 7.3044655,-2.24595 9.8301527,0.57397 2.60128,2.90432 2.302157,7.49503 -0.592191,10.08525 -2.9787766,2.66578 -7.6855837,2.35836 -10.34033689,-0.61042 -2.73027811,-3.05323 -2.41456891,-7.87614 0.62863349,-10.59542 3.1276887,-2.79478 8.0667053,-2.47078 10.8505214,0.64685 2.859279,3.20214 2.526984,8.25727 -0.665076,11.10561 -3.2765981,2.92378 -8.4478298,2.5832 -11.3607053,-0.68329 -2.9882834,-3.35106 -2.6394012,-8.6384 0.7015183,-11.6158 3.4255048,-3.05279 8.8289562,-2.69561 11.870889,0.71974 3.11729,3.49996 2.75182,9.01952 -0.737961,12.12598 -3.5744092,3.18179 -9.2100846,2.80803 -12.3810727,-0.75618 -3.2462981,-3.64886 -2.8642412,-9.40065 0.77440307,-12.63617 3.72331263,-3.3108 9.59121563,-2.92045 12.89125763,0.79263 3.375308,3.79776 2.976663,9.78178 -0.810846,13.14635 -3.8722141,3.43981 -9.9723479,3.03287 -13.40144111,-0.82907 -3.50431989,-3.94666 -3.08908729,-10.16292 0.84728784,-13.65653 4.02111417,-3.56883 10.35348227,-3.1453 13.91162527,0.86551 3.633333,4.09556 3.201512,10.54404 -0.88373,14.16671 -4.1700133,3.69784 -10.7346173,3.25773 -14.4218095,-0.90195 -3.7623474,-4.24446 -3.3139381,-10.92518 0.9201726,-14.6769 4.3189107,-3.82685 11.1157529,-3.37015 14.9319929,0.93839 3.891363,4.39336 3.426365,11.30633 -0.956615,15.18709 -4.4678071,3.95587 -11.4968904,3.48258 -15.4421769,-0.97484 -4.0203794,-4.54225 -3.5387927,-11.68746 0.99305736,-15.69727 4.61670314,-4.08488 11.87802954,-3.595 15.95236154,1.01128 4.149397,4.69115 3.651221,12.0686 -1.0295,16.20746 -4.7655981,4.2139 -12.2591684,3.70743 -16.4625453,-1.04773 -4.2784152,-4.84004 -3.7636505,-12.44973 1.0659421,-16.71763 4.9144923,-4.34293 12.6403082,-3.81987 16.9727292,1.08416 4.407434,4.98894 3.87608,12.83088 -1.102384,17.22782 -5.0633862,4.47195 -13.0214497,3.9323 -17.4829137,-1.1206 -4.5364541,-5.13784 -3.9885109,-13.21202 1.1388269,-17.73801 5.2122786,-4.60096 13.4025908,-4.04473 17.9930978,1.15705 4.665474,5.28672 4.100941,13.59316 -1.17527,18.24819 -5.3611707,4.72998 -13.7837326,4.15716 -18.5032812,-1.19349 -4.7944954,-5.43562 -4.2133733,-13.97431 1.2117118,-18.75838 5.5100627,-4.859 14.1648754,-4.26958 19.0134654,1.22994 4.923517,5.58451 4.325805,14.35544 -1.248154,19.26855 -5.6589541,4.98803 -14.5460188,4.38203 -19.5236496,-1.26637 -5.052539,-5.7334 -4.4382377,-14.73659 1.2845965,-19.77874 5.8078449,-5.11705 14.9271621,-4.49446 20.0338331,1.30282 5.181562,5.88229 4.550671,15.11773 -1.321039,20.28892"
       transform="translate(89.646626,0.36441718)" />
  </g>
</svg>
