<?xml version="1.0" encoding="UTF-8" standalone="no"?>
<!-- Created with Inkscape (http://www.inkscape.org/) -->

<svg
   width="700"
   height="200"
   viewBox="0 0 185.20839 52.916667"
   version="1.1"
   id="svg1"
   xmlns:xlink="http://www.w3.org/1999/xlink"
   xmlns="http://www.w3.org/2000/svg"
   xmlns:svg="http://www.w3.org/2000/svg">
  <defs
     id="defs1">
    <linearGradient
       id="swatch77">
      <stop
         style="stop-color:#000000;stop-opacity:1;"
         offset="0"
         id="stop77" />
    </linearGradient>
    <linearGradient
       id="swatch71">
      <stop
         style="stop-color:#0066ff;stop-opacity:1;"
         offset="0"
         id="stop71" />
    </linearGradient>
    <linearGradient
       id="swatch66">
      <stop
         style="stop-color:#000000;stop-opacity:1;"
         offset="0"
         id="stop66" />
    </linearGradient>
    <linearGradient
       id="swatch65">
      <stop
         style="stop-color:#000000;stop-opacity:1;"
         offset="0"
         id="stop65" />
    </linearGradient>
    <linearGradient
       id="swatch64">
      <stop
         style="stop-color:#000000;stop-opacity:1;"
         offset="0"
         id="stop64" />
    </linearGradient>
    <linearGradient
       id="swatch15">
      <stop
         style="stop-color:#2b43e1;stop-opacity:1;"
         offset="0"
         id="stop15" />
    </linearGradient>
    <linearGradient
       id="swatch10">
      <stop
         style="stop-color:#9d9dff;stop-opacity:1;"
         offset="0"
         id="stop10" />
    </linearGradient>
    <linearGradient
       xlink:href="#swatch10"
       id="linearGradient10"
       x1="13.847853"
       y1="21.682825"
       x2="30.246626"
       y2="21.682825"
       gradientUnits="userSpaceOnUse" />
    <linearGradient
       xlink:href="#swatch10"
       id="linearGradient11"
       x1="15.140453"
       y1="19.450571"
       x2="38.463154"
       y2="19.450571"
       gradientUnits="userSpaceOnUse" />
    <linearGradient
       xlink:href="#swatch10"
       id="linearGradient12"
       x1="25.986026"
       y1="25.409678"
       x2="41.655964"
       y2="25.409678"
       gradientUnits="userSpaceOnUse" />
    <linearGradient
       xlink:href="#swatch10"
       id="linearGradient13"
       x1="-7.2155446"
       y1="49.394875"
       x2="6.9967252"
       y2="49.394875"
       gradientUnits="userSpaceOnUse" />
    <linearGradient
       xlink:href="#swatch10"
       id="linearGradient14"
       x1="3.4375811"
       y1="38.99876"
       x2="25.667027"
       y2="38.99876"
       gradientUnits="userSpaceOnUse" />
    <linearGradient
       xlink:href="#swatch15"
       id="linearGradient15"
       x1="13.847853"
       y1="21.682825"
       x2="30.246626"
       y2="21.682825"
       gradientUnits="userSpaceOnUse" />
    <linearGradient
       xlink:href="#swatch15"
       id="linearGradient16"
       x1="15.140453"
       y1="19.450571"
       x2="38.463154"
       y2="19.450571"
       gradientUnits="userSpaceOnUse" />
    <linearGradient
       xlink:href="#swatch15"
       id="linearGradient17"
       x1="25.986026"
       y1="25.409678"
       x2="41.655964"
       y2="25.409678"
       gradientUnits="userSpaceOnUse" />
    <linearGradient
       xlink:href="#swatch15"
       id="linearGradient18"
       x1="-7.2155446"
       y1="49.394875"
       x2="6.9967252"
       y2="49.394875"
       gradientUnits="userSpaceOnUse" />
    <linearGradient
       xlink:href="#swatch15"
       id="linearGradient19"
       x1="3.4375811"
       y1="38.99876"
       x2="25.667027"
       y2="38.99876"
       gradientUnits="userSpaceOnUse" />
    <linearGradient
       xlink:href="#swatch10"
       id="linearGradient47"
       gradientUnits="userSpaceOnUse"
       x1="13.847853"
       y1="21.682825"
       x2="30.246626"
       y2="21.682825"
       gradientTransform="matrix(0.68836642,0,0,0.60447588,59.152538,-8.5639917)" />
    <linearGradient
       xlink:href="#swatch15"
       id="linearGradient48"
       gradientUnits="userSpaceOnUse"
       x1="13.847853"
       y1="21.682825"
       x2="30.246626"
       y2="21.682825"
       gradientTransform="matrix(0.68836642,0,0,0.60447588,59.152538,-8.5639917)" />
    <linearGradient
       xlink:href="#swatch10"
       id="linearGradient49"
       gradientUnits="userSpaceOnUse"
       x1="25.986026"
       y1="25.409678"
       x2="41.655964"
       y2="25.409678"
       gradientTransform="matrix(0.67096311,0,0,0.62373706,46.542999,-32.846415)" />
    <linearGradient
       xlink:href="#swatch15"
       id="linearGradient50"
       gradientUnits="userSpaceOnUse"
       x1="25.986027"
       y1="25.409678"
       x2="41.655964"
       y2="25.409678"
       gradientTransform="matrix(0.67096311,0,0,0.62373706,46.542999,-32.846415)" />
    <linearGradient
       xlink:href="#swatch10"
       id="linearGradient51"
       gradientUnits="userSpaceOnUse"
       x1="3.4375811"
       y1="38.99876"
       x2="25.667027"
       y2="38.99876"
       gradientTransform="matrix(0.67330194,0,0,0.62121165,56.248581,15.290205)" />
    <linearGradient
       xlink:href="#swatch15"
       id="linearGradient52"
       gradientUnits="userSpaceOnUse"
       x1="3.4375811"
       y1="38.99876"
       x2="25.667027"
       y2="38.99876"
       gradientTransform="matrix(0.67330194,0,0,0.62121165,56.248581,15.290205)" />
    <linearGradient
       xlink:href="#swatch10"
       id="linearGradient53"
       gradientUnits="userSpaceOnUse"
       x1="15.140453"
       y1="19.450571"
       x2="38.463154"
       y2="19.450571"
       gradientTransform="matrix(0.66837625,0,0,0.62650827,45.002461,-34.60868)" />
    <linearGradient
       xlink:href="#swatch15"
       id="linearGradient54"
       gradientUnits="userSpaceOnUse"
       x1="15.140453"
       y1="19.450571"
       x2="38.463154"
       y2="19.450571"
       gradientTransform="matrix(0.66837625,0,0,0.62650827,45.002461,-34.60868)" />
    <linearGradient
       xlink:href="#swatch10"
       id="linearGradient55"
       gradientUnits="userSpaceOnUse"
       x1="-7.2155446"
       y1="49.394875"
       x2="6.9967252"
       y2="49.394875"
       gradientTransform="matrix(0.66124435,0,0,0.63403102,51.692159,24.340556)" />
    <linearGradient
       xlink:href="#swatch15"
       id="linearGradient56"
       gradientUnits="userSpaceOnUse"
       x1="-7.2155447"
       y1="49.394875"
       x2="6.9967251"
       y2="49.394875"
       gradientTransform="matrix(0.66124435,0,0,0.63403102,51.692159,24.340556)" />
    <linearGradient
       xlink:href="#swatch10-6"
       id="linearGradient10-8"
       x1="13.847853"
       y1="21.682825"
       x2="30.246626"
       y2="21.682825"
       gradientUnits="userSpaceOnUse"
       gradientTransform="matrix(0.80410174,0,0,0.78882895,97.80956,16.877049)" />
    <linearGradient
       id="swatch10-6">
      <stop
         style="stop-color:#aaaaff;stop-opacity:1;"
         offset="0"
         id="stop10-5" />
    </linearGradient>
    <linearGradient
       xlink:href="#swatch10-6"
       id="linearGradient12-9"
       x1="25.986027"
       y1="25.409678"
       x2="41.655964"
       y2="25.409678"
       gradientUnits="userSpaceOnUse"
       gradientTransform="matrix(0.80079525,0,0,0.79218538,94.133134,-30.016639)" />
    <linearGradient
       xlink:href="#swatch10-6"
       id="linearGradient14-0"
       x1="3.4375811"
       y1="38.99876"
       x2="25.667027"
       y2="38.99876"
       gradientUnits="userSpaceOnUse"
       gradientTransform="matrix(0.80123547,0,0,0.79174013,80.306597,57.136429)" />
    <linearGradient
       xlink:href="#swatch10-6"
       id="linearGradient11-0"
       x1="15.140453"
       y1="19.450571"
       x2="38.463154"
       y2="19.450571"
       gradientUnits="userSpaceOnUse"
       gradientTransform="matrix(0.80030985,0,0,0.79267576,92.864865,-33.529696)" />
    <linearGradient
       xlink:href="#swatch10-6"
       id="linearGradient13-6"
       x1="-7.2155447"
       y1="49.394875"
       x2="6.9967251"
       y2="49.394875"
       gradientUnits="userSpaceOnUse"
       gradientTransform="matrix(0.79897982,0,0,0.79401635,69.173316,69.936737)" />
    <linearGradient
       xlink:href="#swatch15"
       id="linearGradient66"
       x1="62.775505"
       y1="42.087807"
       x2="79.174278"
       y2="42.087807"
       gradientUnits="userSpaceOnUse"
       gradientTransform="matrix(0.80410174,0,0,0.78882895,58.466751,0.78100933)" />
    <linearGradient
       xlink:href="#swatch15"
       id="linearGradient67"
       x1="67.715012"
       y1="12.653939"
       x2="91.03772"
       y2="12.653939"
       gradientUnits="userSpaceOnUse"
       gradientTransform="matrix(0.80030985,0,0,0.79267576,50.788926,-28.142171)" />
    <linearGradient
       xlink:href="#swatch15"
       id="linearGradient68"
       x1="78.779602"
       y1="20.601654"
       x2="94.449539"
       y2="20.601654"
       gradientUnits="userSpaceOnUse"
       gradientTransform="matrix(0.80079525,0,0,0.79218538,51.856291,-26.207795)" />
    <linearGradient
       xlink:href="#swatch15"
       id="linearGradient69"
       x1="20.754492"
       y1="94.427704"
       x2="34.966763"
       y2="94.427704"
       gradientUnits="userSpaceOnUse"
       gradientTransform="matrix(0.79897982,0,0,0.79401635,46.825823,34.179936)" />
    <linearGradient
       xlink:href="#swatch15"
       id="linearGradient70"
       x1="38.622028"
       y1="78.651413"
       x2="60.851475"
       y2="78.651413"
       gradientUnits="userSpaceOnUse"
       gradientTransform="matrix(0.80123547,0,0,0.79174013,52.115569,25.74183)" />
    <linearGradient
       xlink:href="#swatch66"
       id="linearGradient77"
       x1="35.041264"
       y1="35.823338"
       x2="62.001755"
       y2="35.823338"
       gradientUnits="userSpaceOnUse" />
  </defs>
  <g
     id="layer1">
    <ellipse
       style="fill:url(#linearGradient10);stroke-width:1.092;stroke:url(#linearGradient15)"
       id="path1"
       cx="22.047239"
       cy="21.682825"
       rx="8.1993866"
       ry="11.114723" />
    <ellipse
       style="fill:url(#linearGradient12);stroke-width:1.092;stroke:url(#linearGradient17)"
       id="path2"
       cx="33.820995"
       cy="25.409678"
       rx="7.834969"
       ry="11.66135"
       transform="rotate(27.841974)" />
    <ellipse
       style="fill:url(#linearGradient14);stroke-width:1.092;stroke:url(#linearGradient19)"
       id="path3"
       cx="14.552304"
       cy="38.99876"
       rx="11.114723"
       ry="7.6527605"
       transform="rotate(-25.778552)" />
    <ellipse
       style="fill:url(#linearGradient11);stroke-width:1.092;stroke:url(#linearGradient16)"
       id="path4"
       cx="26.801804"
       cy="19.450571"
       rx="11.66135"
       ry="7.6527605"
       transform="rotate(30.004399)" />
    <ellipse
       style="fill:url(#linearGradient13);stroke-width:1.092;stroke:url(#linearGradient18)"
       id="path5"
       cx="-0.1094097"
       cy="49.394875"
       rx="7.1061349"
       ry="9.2926378"
       transform="rotate(-35.517169)" />
    <circle
       style="fill:#d7eef4;stroke-width:1.81462"
       id="path6"
       cx="21.865026"
       cy="30.246626"
       r="9.8392639" />
    <path
       style="fill:#0066ff;fill-rule:evenodd;stroke:#000000;stroke-width:0.264583"
       id="path7"
       d="m 52.47607,29.153374 c 0.142516,0.175405 -0.16613,0.278646 -0.291534,0.23687 -0.339838,-0.113212 -0.349663,-0.56452 -0.182206,-0.819939 0.299542,-0.456886 0.953563,-0.44638 1.348344,-0.127542 0.579357,0.467909 0.546587,1.348109 0.07288,1.876749 -0.631381,0.704594 -1.744638,0.648319 -2.405154,0.01821 -0.831191,-0.792924 -0.750846,-2.142119 0.03645,-2.933558 0.953524,-0.958538 2.540138,-0.853836 3.461963,0.09112 1.086338,1.113595 0.957117,2.938493 -0.145782,3.990367 -1.27334,1.214431 -3.337071,1.060592 -4.518772,-0.200445 -1.342723,-1.432871 -1.164202,-3.735808 0.25511,-5.047177 1.592254,-1.471158 4.134658,-1.26791 5.575582,0.309774 1.599698,1.75153 1.371692,4.533595 -0.364439,6.103987 -1.910726,1.728317 -4.932598,1.47553 -6.632391,-0.419104 -1.856999,-2.06986 -1.579413,-5.331654 0.473768,-7.160795 2.228948,-1.98573 5.730751,-1.683332 7.6892,0.528432 2.114499,2.387998 1.787278,6.129883 -0.583097,8.217605 -2.547016,2.2433 -6.529043,1.891248 -8.74601,-0.637761 -2.372127,-2.706011 -1.995237,-6.928227 0.692426,-9.274415 2.864983,-2.500978 7.327431,-2.099243 9.80282,0.747091 2.629846,3.023938 2.203263,7.726651 -0.801755,10.331223"
       transform="translate(-30.97546,1.4576687)" />
    <ellipse
       style="fill:url(#linearGradient47);stroke:url(#linearGradient48);stroke-width:0.704404"
       id="path1-7"
       cx="74.329117"
       cy="4.5427527"
       rx="5.6441822"
       ry="6.7185822" />
    <ellipse
       style="fill:url(#linearGradient49);stroke:url(#linearGradient50);stroke-width:0.706436"
       id="path2-4"
       cx="69.235641"
       cy="-16.997456"
       rx="5.2569752"
       ry="7.2736163"
       transform="matrix(0.90717429,0.42075505,-0.51542696,0.85693351,0,0)" />
    <ellipse
       style="fill:url(#linearGradient51);stroke:url(#linearGradient52);stroke-width:0.706232"
       id="path3-2"
       cx="66.046677"
       cy="39.516689"
       rx="7.4835649"
       ry="4.753984"
       transform="matrix(0.92062904,-0.39043844,0.48190735,0.87622218,0,0)" />
    <ellipse
       style="fill:url(#linearGradient53);stroke:url(#linearGradient54);stroke-width:0.706637"
       id="path4-7"
       cx="62.916149"
       cy="-22.422735"
       rx="7.7941694"
       ry="4.7945175"
       transform="matrix(0.89188744,0.45225744,-0.54944044,0.83553289,0,0)" />
    <ellipse
       style="fill:url(#linearGradient55);stroke:url(#linearGradient56);stroke-width:0.707064"
       id="path5-7"
       cx="51.619812"
       cy="55.65844"
       rx="4.6988916"
       ry="5.8918204"
       transform="matrix(0.84732668,-0.53107203,0.63073307,0.77599987,0,0)" />
    <ellipse
       style="fill:#d7eef4;stroke-width:1.17054"
       id="path6-9"
       cx="74.20369"
       cy="9.7193661"
       rx="6.7730188"
       ry="5.9475975" />
    <path
       style="fill:#0066ff;fill-rule:evenodd;stroke:#000000;stroke-width:0.264583"
       id="path7-3"
       d="m 52.47607,29.153374 c 0.142516,0.175405 -0.16613,0.278646 -0.291534,0.23687 -0.339838,-0.113212 -0.349663,-0.56452 -0.182206,-0.819939 0.299542,-0.456886 0.953563,-0.44638 1.348344,-0.127542 0.579357,0.467909 0.546587,1.348109 0.07288,1.876749 -0.631381,0.704594 -1.744638,0.648319 -2.405154,0.01821 -0.831191,-0.792924 -0.750846,-2.142119 0.03645,-2.933558 0.953524,-0.958538 2.540138,-0.853836 3.461963,0.09112 1.086338,1.113595 0.957117,2.938493 -0.145782,3.990367 -1.27334,1.214431 -3.337071,1.060592 -4.518772,-0.200445 -1.342723,-1.432871 -1.164202,-3.735808 0.25511,-5.047177 1.592254,-1.471158 4.134658,-1.26791 5.575582,0.309774 1.599698,1.75153 1.371692,4.533595 -0.364439,6.103987 -1.910726,1.728317 -4.932598,1.47553 -6.632391,-0.419104 -1.856999,-2.06986 -1.579413,-5.331654 0.473768,-7.160795 2.228948,-1.98573 5.730751,-1.683332 7.6892,0.528432 2.114499,2.387998 1.787278,6.129883 -0.583097,8.217605 -2.547016,2.2433 -6.529043,1.891248 -8.74601,-0.637761 -2.372127,-2.706011 -1.995237,-6.928227 0.692426,-9.274415 2.864983,-2.500978 7.327431,-2.099243 9.80282,0.747091 2.629846,3.023938 2.203263,7.726651 -0.801755,10.331223"
       transform="matrix(0.68836642,0,0,0.60447588,37.830072,-7.6828662)" />
    <ellipse
       style="fill:url(#linearGradient10-8);stroke:url(#linearGradient66);stroke-width:0.8697"
       id="path1-6"
       cx="115.53778"
       cy="33.981091"
       rx="6.5931411"
       ry="8.7676153" />
    <ellipse
       style="fill:url(#linearGradient12-9);stroke:url(#linearGradient68);stroke-width:0.869755"
       id="path2-0"
       cx="121.21683"
       cy="-9.8874645"
       rx="6.2742062"
       ry="9.2379513"
       transform="matrix(0.88789009,0.46005564,-0.47405986,0.88049262,0,0)" />
    <ellipse
       style="fill:url(#linearGradient14-0);stroke:url(#linearGradient70);stroke-width:0.869749"
       id="path3-24"
       cx="91.966415"
       cy="88.013306"
       rx="8.9055109"
       ry="6.0589976"
       transform="matrix(0.90370293,-0.42816004,0.44168414,0.89717062,0,0)" />
    <ellipse
       style="fill:url(#linearGradient11-0);stroke:url(#linearGradient67);stroke-width:0.86976"
       id="path4-8"
       cx="114.31461"
       cy="-18.1117"
       rx="9.3326931"
       ry="6.0661578"
       transform="matrix(0.87009007,0.49289275,-0.50727467,0.86178443,0,0)" />
    <ellipse
       style="fill:url(#linearGradient13-6);stroke:url(#linearGradient69);stroke-width:0.869772"
       id="path5-6"
       cx="69.085892"
       cy="109.15708"
       rx="5.6776586"
       ry="7.3785062"
       transform="matrix(0.8191593,-0.57356608,0.58832592,0.8086239,0,0)" />
    <ellipse
       style="fill:#d7eef4;stroke:none;stroke-width:1.44522"
       id="path6-5"
       cx="115.39126"
       cy="40.736462"
       rx="7.9117694"
       ry="7.7614961" />
    <path
       style="fill:#0066ff;fill-rule:evenodd;stroke:none;stroke-width:0.264583"
       id="path7-0"
       d="m 52.47607,29.153374 c 0.142516,0.175405 -0.16613,0.278646 -0.291534,0.23687 -0.339838,-0.113212 -0.349663,-0.56452 -0.182206,-0.819939 0.299542,-0.456886 0.953563,-0.44638 1.348344,-0.127542 0.579357,0.467909 0.546587,1.348109 0.07288,1.876749 -0.631381,0.704594 -1.744638,0.648319 -2.405154,0.01821 -0.831191,-0.792924 -0.750846,-2.142119 0.03645,-2.933558 0.953524,-0.958538 2.540138,-0.853836 3.461963,0.09112 1.086338,1.113595 0.957117,2.938493 -0.145782,3.990367 -1.27334,1.214431 -3.337071,1.060592 -4.518772,-0.200445 -1.342723,-1.432871 -1.164202,-3.735808 0.25511,-5.047177 1.592254,-1.471158 4.134658,-1.26791 5.575582,0.309774 1.599698,1.75153 1.371692,4.533595 -0.364439,6.103987 -1.910726,1.728317 -4.932598,1.47553 -6.632391,-0.419104 -1.856999,-2.06986 -1.579413,-5.331654 0.473768,-7.160795 2.228948,-1.98573 5.730751,-1.683332 7.6892,0.528432 2.114499,2.387998 1.787278,6.129883 -0.583097,8.217605 -2.547016,2.2433 -6.529043,1.891248 -8.74601,-0.637761 -2.372127,-2.706011 -1.995237,-6.928227 0.692426,-9.274415 2.864983,-2.500978 7.327431,-2.099243 9.80282,0.747091 2.629846,3.023938 2.203263,7.726651 -0.801755,10.331223"
       transform="matrix(0.80410174,0,0,0.78882895,72.902141,18.026901)" />
    <path
       style="fill:none;fill-opacity:1;fill-rule:evenodd;stroke:url(#linearGradient77);stroke-width:0.264583;stroke-opacity:1"
       id="path70"
       d="m 51.565029,32.979752 c -4e-6,-10e-7 0,-9e-6 2e-6,-1.3e-5 5.1e-5,-9.4e-5 2.21e-4,10e-6 2.64e-4,5e-5 5.37e-4,4.93e-4 -9.3e-5,0.0014 -5.06e-4,0.0017 -0.0023,0.0017 -0.0054,-6.75e-4 -0.0065,-0.0027 -0.0042,-0.0075 0.0029,-0.01581 0.0095,-0.01866 0.01921,-0.0084 0.03852,0.009 0.0445,0.02617 0.01483,0.04244 -0.02278,0.08224 -0.06111,0.09318 -0.08403,0.02398 -0.159127,-0.04964 -0.177252,-0.126339 -0.03619,-0.153155 0.09734,-0.28535 0.238394,-0.313191 0.261652,-0.05165 0.48168,0.17618 0.521924,0.418957 0.07034,0.42434 -0.299353,0.774062 -0.695574,0.829367 -0.659361,0.09203 -1.194195,-0.483368 -1.266951,-1.102367 -0.116187,-0.988519 0.748394,-1.780113 1.680727,-1.872158 1.437614,-0.141929 2.576762,1.118629 2.689054,2.480023 0.168001,2.036785 -1.622673,3.636587 -3.558311,3.768825 -2.820839,0.192713 -5.0201,-2.293891 -5.1703,-4.983033 -0.2139,-3.829596 3.170782,-6.796469 6.831724,-6.960493 5.108217,-0.228868 9.044092,4.297349 9.21513,9.192717 0.234355,6.70755 -5.723462,11.851178 -12.165846,12.019184 -6.595544,0.172001 -12.406411,-4.418402 -14.527617,-10.535906"
       transform="translate(-0.54662577,-0.3645218)" />
    <path
       style="fill:none;fill-rule:evenodd;stroke:#000000;stroke-width:0.264583"
       id="path71"
       d="m 62.133129,35.895092 c -10e-7,1e-6 -2e-6,-10e-7 -3e-6,-2e-6 -2.6e-5,-3.3e-5 4.6e-5,-8.1e-5 6.5e-5,-8.9e-5 3.18e-4,-1.39e-4 5.78e-4,3.28e-4 6.3e-4,5.61e-4 3.23e-4,0.0015 -0.0015,0.0024 -0.0027,0.0024 -0.0046,3.48e-4 -0.007,-0.0051 -0.0069,-0.009 3.55e-4,-0.01172 0.01392,-0.01719 0.02395,-0.01609 0.0256,0.0028 0.03665,0.03227 0.0328,0.05468 -0.0086,0.05021 -0.06657,0.07068 -0.111288,0.06075 -0.09082,-0.02017 -0.126247,-0.125602 -0.104675,-0.207608 0.04056,-0.154183 0.220958,-0.212234 0.36171,-0.170384 0.248728,0.07395 0.339696,0.367388 0.264917,0.59649 -0.125582,0.384748 -0.583207,0.522088 -0.940244,0.396638 -0.574582,-0.201888 -0.775498,-0.890685 -0.575344,-1.427238 0.310666,-0.832806 1.31643,-1.118885 2.098283,-0.812379 1.176417,0.461186 1.574321,1.891776 1.120738,3.001315 -0.664312,1.625017 -2.653172,2.167214 -4.191955,1.51518 -2.201004,-0.932638 -2.926556,-3.64257 -2.012337,-5.734101 1.280609,-2.929751 4.907812,-3.885152 7.700486,-2.630821 3.839801,1.72465 5.079859,6.503021 3.391335,10.173262 -2.283289,4.963045 -8.488981,6.551821 -13.244569,4.316783"
       transform="matrix(1.2131681,-0.58245571,-0.63736891,-1.200702,22.050934,118.17412)" />
    <path
       style="fill:none;fill-rule:evenodd;stroke:#000000;stroke-width:0.264583"
       id="path77"
       d="m 94.384048,13.119018 c 10e-7,3e-6 -6e-6,2e-6 -9e-6,2e-6 -8.2e-5,-1.4e-5 -5e-5,-1.65e-4 -3.2e-5,-2.07e-4 2.24e-4,-5.22e-4 0.001,-2.89e-4 0.0014,-6.5e-5 0.0019,0.0013 8.93e-4,0.0041 -2.82e-4,0.0055 -0.0044,0.005 -0.01237,0.0019 -0.01616,-0.0021 -0.01112,-0.01195 -0.0033,-0.03064 0.0077,-0.03946 0.02736,-0.02186 0.06631,-0.0045 0.08425,0.02084 0.03933,0.05555 0.0046,0.129746 -0.04706,0.162873 -0.103192,0.06615 -0.234816,0.0022 -0.291701,-0.09429 -0.105523,-0.178924 0.0051,-0.399439 0.173059,-0.491709 0.293639,-0.161276 0.646092,0.02006 0.789057,0.296918 0.237912,0.460731 -0.04677,1.002329 -0.48282,1.215652 -0.696358,0.340667 -1.501307,-0.09019 -1.809724,-0.7515 -0.475566,-1.019706 0.1565,-2.182303 1.127853,-2.616406 1.453244,-0.649464 3.091236,0.253164 3.688299,1.641321 0.870111,2.022986 -0.389072,4.281191 -2.326266,5.086051 -2.75875,1.146198 -5.812933,-0.574651 -6.878926,-3.222354 -1.487411,-3.694417 0.821987,-7.7554337 4.374936,-9.1453817 4.868191,-1.9044832 10.18639,1.1449433 11.97364,5.8354247 1.82974,4.801991 -0.0426,10.257332 -3.98992,13.395891"
       transform="rotate(63.13158,85.470273,13.84)" />
    <path
       style="fill:none;fill-rule:evenodd;stroke:#000000;stroke-width:0.264583"
       id="path77-8"
       d="m 94.384048,13.119018 c 10e-7,3e-6 -6e-6,2e-6 -9e-6,2e-6 -8.2e-5,-1.4e-5 -5e-5,-1.65e-4 -3.2e-5,-2.07e-4 2.24e-4,-5.22e-4 0.001,-2.89e-4 0.0014,-6.5e-5 0.0019,0.0013 8.93e-4,0.0041 -2.82e-4,0.0055 -0.0044,0.005 -0.01237,0.0019 -0.01616,-0.0021 -0.01112,-0.01195 -0.0033,-0.03064 0.0077,-0.03946 0.02736,-0.02186 0.06631,-0.0045 0.08425,0.02084 0.03933,0.05555 0.0046,0.129746 -0.04706,0.162873 -0.103192,0.06615 -0.234816,0.0022 -0.291701,-0.09429 -0.105523,-0.178924 0.0051,-0.399439 0.173059,-0.491709 0.293639,-0.161276 0.646092,0.02006 0.789057,0.296918 0.237912,0.460731 -0.04677,1.002329 -0.48282,1.215652 -0.696358,0.340667 -1.501307,-0.09019 -1.809724,-0.7515 -0.475566,-1.019706 0.1565,-2.182303 1.127853,-2.616406 1.453244,-0.649464 3.091236,0.253164 3.688299,1.641321 0.870111,2.022986 -0.389072,4.281191 -2.326266,5.086051 -2.75875,1.146198 -5.812933,-0.574651 -6.878926,-3.222354 -1.487411,-3.694417 0.821987,-7.7554337 4.374936,-9.1453817 4.868191,-1.9044832 10.18639,1.1449433 11.97364,5.8354247 1.82974,4.801991 -0.0426,10.257332 -3.98992,13.395891"
       transform="matrix(0.41488037,-0.29039013,0.27231213,0.44242304,-1.3248442,30.06353)" />
    <path
       style="fill:none;fill-rule:evenodd;stroke:#000000;stroke-width:0.264583"
       id="path77-8-5"
       d="m 94.384048,13.119018 c 10e-7,3e-6 -6e-6,2e-6 -9e-6,2e-6 -8.2e-5,-1.4e-5 -5e-5,-1.65e-4 -3.2e-5,-2.07e-4 2.24e-4,-5.22e-4 0.001,-2.89e-4 0.0014,-6.5e-5 0.0019,0.0013 8.93e-4,0.0041 -2.82e-4,0.0055 -0.0044,0.005 -0.01237,0.0019 -0.01616,-0.0021 -0.01112,-0.01195 -0.0033,-0.03064 0.0077,-0.03946 0.02736,-0.02186 0.06631,-0.0045 0.08425,0.02084 0.03933,0.05555 0.0046,0.129746 -0.04706,0.162873 -0.103192,0.06615 -0.234816,0.0022 -0.291701,-0.09429 -0.105523,-0.178924 0.0051,-0.399439 0.173059,-0.491709 0.293639,-0.161276 0.646092,0.02006 0.789057,0.296918 0.237912,0.460731 -0.04677,1.002329 -0.48282,1.215652 -0.696358,0.340667 -1.501307,-0.09019 -1.809724,-0.7515 -0.475566,-1.019706 0.1565,-2.182303 1.127853,-2.616406 1.453244,-0.649464 3.091236,0.253164 3.688299,1.641321 0.870111,2.022986 -0.389072,4.281191 -2.326266,5.086051 -2.75875,1.146198 -5.812933,-0.574651 -6.878926,-3.222354 -1.487411,-3.694417 0.821987,-7.7554337 4.374936,-9.1453817 4.868191,-1.9044832 10.18639,1.1449433 11.97364,5.8354247 1.82974,4.801991 -0.0426,10.257332 -3.98992,13.395891"
       transform="matrix(0.33115343,0.38313125,-0.41237265,0.31597602,94.671249,-32.867741)" />
    <path
       style="fill:none;fill-rule:evenodd;stroke:#000000;stroke-width:0.264583"
       id="path71-3"
       d="m 62.133129,35.895092 c -10e-7,1e-6 -2e-6,-10e-7 -3e-6,-2e-6 -2.6e-5,-3.3e-5 4.6e-5,-8.1e-5 6.5e-5,-8.9e-5 3.18e-4,-1.39e-4 5.78e-4,3.28e-4 6.3e-4,5.61e-4 3.23e-4,0.0015 -0.0015,0.0024 -0.0027,0.0024 -0.0046,3.48e-4 -0.007,-0.0051 -0.0069,-0.009 3.55e-4,-0.01172 0.01392,-0.01719 0.02395,-0.01609 0.0256,0.0028 0.03665,0.03227 0.0328,0.05468 -0.0086,0.05021 -0.06657,0.07068 -0.111288,0.06075 -0.09082,-0.02017 -0.126247,-0.125602 -0.104675,-0.207608 0.04056,-0.154183 0.220958,-0.212234 0.36171,-0.170384 0.248728,0.07395 0.339696,0.367388 0.264917,0.59649 -0.125582,0.384748 -0.583207,0.522088 -0.940244,0.396638 -0.574582,-0.201888 -0.775498,-0.890685 -0.575344,-1.427238 0.310666,-0.832806 1.31643,-1.118885 2.098283,-0.812379 1.176417,0.461186 1.574321,1.891776 1.120738,3.001315 -0.664312,1.625017 -2.653172,2.167214 -4.191955,1.51518 -2.201004,-0.932638 -2.926556,-3.64257 -2.012337,-5.734101 1.280609,-2.929751 4.907812,-3.885152 7.700486,-2.630821 3.839801,1.72465 5.079859,6.503021 3.391335,10.173262 -2.283289,4.963045 -8.488981,6.551821 -13.244569,4.316783"
       transform="matrix(0.63052344,-0.96370764,-0.98021804,-0.60920358,106.49603,98.824106)" />
    <path
       style="fill:none;fill-rule:evenodd;stroke:#000000;stroke-width:0.264583"
       id="path71-6"
       d="m 62.133129,35.895092 c -10e-7,1e-6 -2e-6,-10e-7 -3e-6,-2e-6 -2.6e-5,-3.3e-5 4.6e-5,-8.1e-5 6.5e-5,-8.9e-5 3.18e-4,-1.39e-4 5.78e-4,3.28e-4 6.3e-4,5.61e-4 3.23e-4,0.0015 -0.0015,0.0024 -0.0027,0.0024 -0.0046,3.48e-4 -0.007,-0.0051 -0.0069,-0.009 3.55e-4,-0.01172 0.01392,-0.01719 0.02395,-0.01609 0.0256,0.0028 0.03665,0.03227 0.0328,0.05468 -0.0086,0.05021 -0.06657,0.07068 -0.111288,0.06075 -0.09082,-0.02017 -0.126247,-0.125602 -0.104675,-0.207608 0.04056,-0.154183 0.220958,-0.212234 0.36171,-0.170384 0.248728,0.07395 0.339696,0.367388 0.264917,0.59649 -0.125582,0.384748 -0.583207,0.522088 -0.940244,0.396638 -0.574582,-0.201888 -0.775498,-0.890685 -0.575344,-1.427238 0.310666,-0.832806 1.31643,-1.118885 2.098283,-0.812379 1.176417,0.461186 1.574321,1.891776 1.120738,3.001315 -0.664312,1.625017 -2.653172,2.167214 -4.191955,1.51518 -2.201004,-0.932638 -2.926556,-3.64257 -2.012337,-5.734101 1.280609,-2.929751 4.907812,-3.885152 7.700486,-2.630821 3.839801,1.72465 5.079859,6.503021 3.391335,10.173262 -2.283289,4.963045 -8.488981,6.551821 -13.244569,4.316783"
       transform="matrix(-0.59283941,-0.7730906,-0.77626934,0.42865988,118.51169,48.83566)" />
    <path
       style="fill:none;fill-rule:evenodd;stroke:#000000;stroke-width:0.264583"
       id="path71-9"
       d="m 62.133129,35.895092 c -10e-7,1e-6 -2e-6,-10e-7 -3e-6,-2e-6 -2.6e-5,-3.3e-5 4.6e-5,-8.1e-5 6.5e-5,-8.9e-5 3.18e-4,-1.39e-4 5.78e-4,3.28e-4 6.3e-4,5.61e-4 3.23e-4,0.0015 -0.0015,0.0024 -0.0027,0.0024 -0.0046,3.48e-4 -0.007,-0.0051 -0.0069,-0.009 3.55e-4,-0.01172 0.01392,-0.01719 0.02395,-0.01609 0.0256,0.0028 0.03665,0.03227 0.0328,0.05468 -0.0086,0.05021 -0.06657,0.07068 -0.111288,0.06075 -0.09082,-0.02017 -0.126247,-0.125602 -0.104675,-0.207608 0.04056,-0.154183 0.220958,-0.212234 0.36171,-0.170384 0.248728,0.07395 0.339696,0.367388 0.264917,0.59649 -0.125582,0.384748 -0.583207,0.522088 -0.940244,0.396638 -0.574582,-0.201888 -0.775498,-0.890685 -0.575344,-1.427238 0.310666,-0.832806 1.31643,-1.118885 2.098283,-0.812379 1.176417,0.461186 1.574321,1.891776 1.120738,3.001315 -0.664312,1.625017 -2.653172,2.167214 -4.191955,1.51518 -2.201004,-0.932638 -2.926556,-3.64257 -2.012337,-5.734101 1.280609,-2.929751 4.907812,-3.885152 7.700486,-2.630821 3.839801,1.72465 5.079859,6.503021 3.391335,10.173262 -2.283289,4.963045 -8.488981,6.551821 -13.244569,4.316783"
       transform="matrix(1.2131681,-0.58245571,-0.63736891,-1.200702,85.564632,97.786916)" />
    <path
       style="fill:none;fill-rule:evenodd;stroke:#000000;stroke-width:0.264583"
       id="path77-8-7"
       d="m 94.384048,13.119018 c 10e-7,3e-6 -6e-6,2e-6 -9e-6,2e-6 -8.2e-5,-1.4e-5 -5e-5,-1.65e-4 -3.2e-5,-2.07e-4 2.24e-4,-5.22e-4 0.001,-2.89e-4 0.0014,-6.5e-5 0.0019,0.0013 8.93e-4,0.0041 -2.82e-4,0.0055 -0.0044,0.005 -0.01237,0.0019 -0.01616,-0.0021 -0.01112,-0.01195 -0.0033,-0.03064 0.0077,-0.03946 0.02736,-0.02186 0.06631,-0.0045 0.08425,0.02084 0.03933,0.05555 0.0046,0.129746 -0.04706,0.162873 -0.103192,0.06615 -0.234816,0.0022 -0.291701,-0.09429 -0.105523,-0.178924 0.0051,-0.399439 0.173059,-0.491709 0.293639,-0.161276 0.646092,0.02006 0.789057,0.296918 0.237912,0.460731 -0.04677,1.002329 -0.48282,1.215652 -0.696358,0.340667 -1.501307,-0.09019 -1.809724,-0.7515 -0.475566,-1.019706 0.1565,-2.182303 1.127853,-2.616406 1.453244,-0.649464 3.091236,0.253164 3.688299,1.641321 0.870111,2.022986 -0.389072,4.281191 -2.326266,5.086051 -2.75875,1.146198 -5.812933,-0.574651 -6.878926,-3.222354 -1.487411,-3.694417 0.821987,-7.7554337 4.374936,-9.1453817 4.868191,-1.9044832 10.18639,1.1449433 11.97364,5.8354247 1.82974,4.801991 -0.0426,10.257332 -3.98992,13.395891"
       transform="matrix(-0.27192643,0.42720975,-0.42106658,-0.30429423,183.07288,-12.130757)" />
  </g>
</svg>
